<svg width="727" height="548" viewBox="0 0 727 548" fill="none" xmlns="http://www.w3.org/2000/svg">
<path d="M152 1.59998C122 4.26665 97.3332 12.8 72.7999 29.2C37.8665 52.5333 14.7999 86.4 4.3999 130C1.86657 140.267 1.5999 146.667 1.06657 198.4L0.399902 255.467L159.6 255.067C318.4 254.667 318.667 254.667 328.933 251.733C353.333 244.8 373.067 233.6 389.467 217.333C427.067 180.133 437.467 123.067 415.333 75.7333C395.867 34 358.667 7.06665 313.6 2.13332C302 0.799985 166 0.399985 152 1.59998Z" fill="#FF3C4B"/>
<path d="M588.667 1.60001C532.933 6.93335 488.267 45.2 475.067 98.8C471.333 114.267 470.933 140.667 474.4 155.067C483.867 194.667 507.467 224.667 542.667 242.133C560.4 250.933 573.2 254.133 594 254.933C613.467 255.733 628.667 253.467 644.667 247.2C705.067 223.867 738.267 160.933 723.2 98C720.4 85.8667 711.6 66 704.667 56C684.4 26.6667 649.867 6.13335 613.6 2.13335C601.067 0.666681 598.133 0.666681 588.667 1.60001Z" fill="#FF3C4B"/>
<path d="M111.067 294.133C84.1333 298 60 309.867 39.6 329.2C4.40002 362.667 -7.99998 414.133 7.86669 461.067C14 478.8 23.0667 493.467 36.6667 507.467C54.1333 525.333 73.2 536.4 99.0667 543.733C109.067 546.533 112 546.667 192.667 547.067C263.333 547.333 278 547.2 289.2 545.333C349.067 535.867 399.6 493.067 418.533 436C425.867 413.733 426.267 409.467 426.933 348.933L427.6 292.667L273.067 292.8C188.133 292.933 115.2 293.467 111.067 294.133Z" fill="#FF3C4B"/>
<path d="M556.4 294C516.267 301.067 486.4 328.133 474.533 368C472.4 375.2 472.133 384.267 471.733 461.733L471.2 547.467L557.6 547.067C655.067 546.533 650 547.067 672.267 535.867C697.6 523.2 716 500.4 724.267 471.2C726.4 463.733 726.667 457.333 726.667 420C726.667 371.867 726.267 368.933 716.533 349.2C706.667 328.933 690.667 313.067 670.667 303.333C651.467 294 648.8 293.6 603.333 293.2C580.933 293.067 559.867 293.333 556.4 294Z" fill="#FF3C4B"/>
</svg>
