<svg xmlns="http://www.w3.org/2000/svg" width="720" height="644" viewBox="0 0 720 644">
    <g fill="none" fill-rule="evenodd">
        <g fill-rule="nonzero">
            <path fill="#1C8" d="M684.556 215.78C651.562 116.582 565.262 33.136 461.276 8.452 343.765-19.459 217.488 26.01 121.29 92.974c-35.103 24.434-67.847 53.44-93.244 88.056C-58.696 299.4 87.088 362.253 83.425 421.4c-3.664 59.146-97.83 72.074-25.858 153.407 71.972 81.333 299.012 62.834 476.198-31.427 58.505-31.12 114.67-74.398 142.677-136.234 28.524-63.065 28.447-130.202 8.114-191.365z" transform="translate(0 1) translate(21 11)"/>
            <path fill="#FFF" d="M684.556 215.78C651.562 116.582 565.262 33.136 461.276 8.452 343.765-19.459 217.488 26.01 121.29 92.974c-35.103 24.434-67.847 53.44-93.244 88.056C-58.696 299.4 87.088 362.253 83.425 421.4c-3.664 59.146-97.83 72.074-25.858 153.407 71.972 81.333 299.012 62.834 476.198-31.427 58.505-31.12 114.67-74.398 142.677-136.234 28.524-63.065 28.447-130.202 8.114-191.365z" opacity=".7" transform="translate(0 1) translate(21 11)"/>
        </g>
        <g transform="translate(0 1) translate(59)">
            <path fill="#FFF" fill-rule="nonzero" d="M167.888 540.005c-19.714 12.898-41.942 47.313-53.057 61.286-11.114 13.974-11.095 34.05-15.76 39.425-4.664 5.374-20.788-11.113-17.276-23.302 3.513-12.188 9.598-14.683 8.255-20.422-1.344-5.74-4.665-9.328-1.075-16.852 3.59-7.525 13.974-.346 24.378-7.525 10.404-7.178 20.79-38.004 33.689-70.25 12.9-32.246 40.157-31.555 43.382-36.564 3.225-5.01 21.5-70.27 40.158-67.026 18.658 3.244 52.366 36.2 41.636 54.204-10.73 18.004-23.304 17.582-38.392 27.966-15.088 10.384-13.264 12.553-23.304 23.301-10.04 10.749-17.276 12.553-22.593 13.974 0 0-7.525 8.253-12.19 14.338-4.664 6.084-7.85 7.447-7.85 7.447z"/>
            <g fill-rule="nonzero">
                <path fill="#1C8" d="M51.35 161.04c6.201-11.632 24.821-39.579 44.151-56.642 19.33-17.064 80.718-42.688 80.718-42.688l11.94-2.38c1.217-1.57 2.339-3.21 3.36-4.914 10.75-17.908-22.94-50.883-41.579-54.108-18.639-3.224-36.932 61.997-40.157 67.026-3.225 5.029-30.464 4.3-43.383 36.565-12.918 32.265-23.303 63.09-33.688 70.25-10.385 7.16-20.79 0-24.379 7.524-3.59 7.524-.365 11.113 1.075 16.852 1.44 5.74-4.664 8.254-8.254 20.423-3.59 12.169 12.554 28.676 17.276 23.301 1.766-2.73 2.973-5.783 3.551-8.983-2.953-7.967-3.806-16.56-2.476-24.952 2.38-19.328 25.627-35.624 31.846-47.275z" transform="translate(80.622 398.467)"/>
                <path fill="#FFF" d="M51.35 161.04c6.201-11.632 24.821-39.579 44.151-56.642 19.33-17.064 80.718-42.688 80.718-42.688l11.94-2.38c1.217-1.57 2.339-3.21 3.36-4.914 10.75-17.908-22.94-50.883-41.579-54.108-18.639-3.224-36.932 61.997-40.157 67.026-3.225 5.029-30.464 4.3-43.383 36.565-12.918 32.265-23.303 63.09-33.688 70.25-10.385 7.16-20.79 0-24.379 7.524-3.59 7.524-.365 11.113 1.075 16.852 1.44 5.74-4.664 8.254-8.254 20.423-3.59 12.169 12.554 28.676 17.276 23.301 1.766-2.73 2.973-5.783 3.551-8.983-2.953-7.967-3.806-16.56-2.476-24.952 2.38-19.328 25.627-35.624 31.846-47.275z" opacity=".5" transform="translate(80.622 398.467)"/>
            </g>
            <path stroke="#263238" stroke-linecap="round" d="M167.888 540.005c-19.714 12.898-41.942 47.313-53.057 61.286-11.114 13.974-11.095 34.05-15.76 39.425-4.664 5.374-20.788-11.113-17.276-23.302 3.513-12.188 9.598-14.683 8.255-20.422-1.344-5.74-4.665-9.328-1.075-16.852 3.59-7.525 13.974-.346 24.378-7.525 10.404-7.178 20.79-38.004 33.689-70.25 12.9-32.246 40.157-31.555 43.382-36.564 3.225-5.01 21.5-70.27 40.158-67.026 18.658 3.244 52.366 36.2 41.636 54.204-10.73 18.004-23.304 17.582-38.392 27.966-15.088 10.384-13.264 12.553-23.304 23.301-10.04 10.749-17.276 12.553-22.593 13.974 0 0-7.525 8.253-12.19 14.338-4.664 6.084-7.85 7.447-7.85 7.447z"/>
            <path fill="#1C8" fill-rule="nonzero" d="M165.163 541.924c-4.37-.27-8.66-1.283-12.689-2.994-7.87-3.301-10.96-11.843-12.112-19.405-9.905 25.432-18.428 47.217-26.874 53.09-10.404 7.18-20.79 0-24.379 7.525-3.59 7.524-.365 11.113 1.075 16.852 1.44 5.739-4.665 8.253-8.254 20.422-3.59 12.17 12.554 28.676 17.276 23.302 4.722-5.374 4.665-25.451 15.76-39.425 10.577-13.34 31.193-45.26 50.197-59.367z"/>
            <path fill="#000" fill-rule="nonzero" d="M99.072 640.716c.271-.325.515-.671.73-1.037l.172-.287c.211-.384.422-.807.633-1.286 0 0 0-.173.096-.25.173-.422.346-.864.5-1.324.06-.144.11-.292.153-.442.192-.537.365-1.094.537-1.67l.173-.614c.115-.441.25-.902.384-1.382l.173-.69c-2.954-7.968-3.806-16.561-2.476-24.953 2.322-19.405 25.607-35.701 31.826-47.352 4.637-8.292 9.798-16.28 15.453-23.916-4.242-4.145-6.2-10.364-7.064-16.046l-1.69 4.3-.268.73-1.69 4.299-1.593 4.03-.268.672c-.519 1.305-1.037 2.591-1.555 3.839l-.269.672c-.518 1.286-1.037 2.552-1.555 3.838l-1.536 3.609-.287.672c-.5 1.151-.999 2.265-1.498 3.359l-.23.537-1.401 3.033-.154.326c-.5 1.037-.979 2.035-1.459 2.994-.096.211-.211.403-.307.576-.48.96-.96 1.92-1.44 2.783l-.172.327-1.363 2.399-.211.365c-.48.806-.941 1.554-1.421 2.284l-.288.422c-.48.73-.96 1.401-1.42 2.034l-.135.154c-.441.595-.902 1.152-1.343 1.67l-.25.288c-.46.537-.94.998-1.401 1.44l-.269.249c-.456.413-.937.797-1.44 1.152-2.85 1.95-6.157 3.126-9.598 3.416-1.92.192-3.57.192-5.202.211-1.502-.024-3.003.065-4.491.269-2.244.192-4.21 1.578-5.145 3.628-.97 1.89-1.525 3.963-1.632 6.084-.02.687.019 1.374.116 2.054.039.323.096.643.172.96.538 2.552 1.709 4.894 2.419 7.677.161.66.232 1.337.211 2.016-.153 2.572-1.92 4.74-3.839 8.1-1.972 3.218-3.508 6.684-4.569 10.307-.816 3.176-.636 6.527.519 9.597.85 2.395 2.026 4.662 3.493 6.737.48.69.98 1.343 1.498 1.92 4.146 5.143 9.348 7.907 11.67 5.22z" opacity=".2"/>
            <path stroke="#263238" stroke-linecap="round" d="M165.163 541.924c-4.37-.27-8.66-1.283-12.689-2.994-7.87-3.301-10.96-11.843-12.112-19.405-9.905 25.432-18.428 47.217-26.874 53.09-10.404 7.18-20.79 0-24.379 7.525-3.59 7.524-.365 11.113 1.075 16.852 1.44 5.739-4.665 8.253-8.254 20.422-3.59 12.17 12.554 28.676 17.276 23.302 4.722-5.374 4.665-25.451 15.76-39.425 10.577-13.34 31.193-45.26 50.197-59.367z"/>
            <path fill="#1C8" fill-rule="nonzero" d="M81.392 348.218s17.564 23.647 36.204 23.378c18.639-.268 29.503-16.775 39.082-15.643 7.081 1.072 14.021 2.926 20.693 5.528 0 0 66.571-89.194 81.89-104.3 15.318-15.106 24.167-32.4 3.128-37.736-21.038-5.336-64.977 4.127-87.014 23.494-22.037 19.367-91.871 96.43-91.871 96.43l-2.112 8.85z"/>
            <path fill="#000" fill-rule="nonzero" stroke="#263238" stroke-linecap="round" d="M81.392 348.218s17.564 23.647 36.204 23.378c18.639-.268 29.503-16.775 39.082-15.643 7.081 1.072 14.021 2.926 20.693 5.528 0 0 66.571-89.194 81.89-104.3 15.318-15.106 24.167-32.4 3.128-37.736-21.038-5.336-64.977 4.127-87.014 23.494-22.037 19.367-91.871 96.43-91.871 96.43l-2.112 8.85z" opacity=".5"/>
            <path stroke="#263238" stroke-linecap="round" d="M81.392 348.218s17.564 23.647 36.204 23.378c18.639-.268 29.503-16.775 39.082-15.643 7.081 1.072 14.021 2.926 20.693 5.528 0 0 66.571-89.194 81.89-104.3 15.318-15.106 24.167-32.4 3.128-37.736-21.038-5.336-64.977 4.127-87.014 23.494-22.037 19.367-91.871 96.43-91.871 96.43l-2.112 8.85z"/>
            <path fill="#FFF" fill-rule="nonzero" d="M332.857 139.963s5.375-12.899 16.124-18.638c7.168-3.573 15.03-5.538 23.035-5.758l27.95-17.274s7.889-27.256 34.782-38.388C461.641 48.772 575.991 7.217 577.066 6.507c1.075-.71 14.34-7.179 14.34-6.104.014 1.846-.352 3.676-1.076 5.374-1.075 2.88-27.604 20.077-27.604 20.077s12.9-7.888 13.265-3.838c.364 4.05 0 5.01-4.665 7.888-4.664 2.88-13.264 8.235-15.05 9.31-1.785 1.074-8.599 7.523-13.993 8.253-5.394.73-18.985 1.785-20.06 2.86-1.075 1.075-36.222 35.125-47.682 44.818-11.46 9.693-30.118 18.637-30.118 18.637s-25.089 26.872-44.15 40.864c-19.062 13.993-31.904 17.563-31.904 17.563l-1.44 1.42s1.075 12.553 1.075 13.993c0 1.44 10.405 36.91 5.76 56.622-4.646 19.712-13.63 27.966-13.63 27.966s-1.42 23.301-7.16 31.9c-5.74 8.6-21.518 19.002-32.633 27.256-11.114 8.253-12.534 26.526-13.264 28.676-.73 2.15-9.598 38.714-14.34 47.658-4.74 8.945-19.195 13.993-21.594 14.703-1.306.384-14.666 20.653-27.527 19.655-17.202-1.216-30.874-14.927-32.038-32.131-.204-3.542-.075-7.096.384-10.614 2.86-21.882 11.517-30.96 11.517-30.96s18.37-71.767 16.566-90.769c-1.804-19.002-2.15-30.826 3.225-41.574 5.375-10.749 22.94-27.237 50.197-39.08 27.258-11.842 30.464-19.712 30.464-33.32.276-8.653 3.416-16.97 8.926-23.647z"/>
            <g fill-rule="nonzero">
                <path fill="#1C8" d="M147.404 143.995l-.21-.096s-1.556 23.282-5.433 38.81c-3.878 15.528-20.175 25.605-20.175 25.605l-8.542 23.283s-19.407 17.83-31.827 17.83c-12.42 0-14.032-10.076-14.032-10.076-11.69-9.943-37.048-16.795-53.498-12.918C11.114 246.76 3.954 277.51.25 292.75c6.93 3.704 18.044 7.197 34.34 5.585 16.838-1.837 33.283-6.3 48.739-13.225 1.632-6.525 4.799-15.163 11.517-20.134l3.744-2.745c-11.25 4.684-25.53 19.943-36.031 21.344-11.652 1.555-15.53-.768-14.742-5.432.787-4.664 16.93-1.708 22.497-3.839 5.567-2.13.787-3.09-10.865-4.645-11.652-1.554-9.31-6.219-9.31-6.219s18.908 1.574 22.498 0c3.59-1.573 28.793-7.677 40.311-17.85 11.517-10.173 12.516-31.766 12.516-31.766l8.945-4.472c.192-2.13.269-3.455.269-3.455s8.964-8.235 13.629-27.966c2.245-9.559.998-22.687-.903-33.935zM242.155 20.597c-22.42 9.712-26.874 6.717-26.874 6.717 1.943 1.401 3.767 2.961 5.451 4.665 3.244 3.147-.979 13.263-12.938 22.246-11.959 8.982-50.83 32.917-57.549 32.917-6.718 0-6.718-22.4-6.718-22.4-2.829 13.894-3.4 28.153-1.69 42.228l1.095-1.075s12.9-3.59 31.903-17.563c19.004-13.973 44.15-40.864 44.15-40.864s18.64-8.963 30.119-18.637c6.296-5.317 19.714-17.985 30.713-28.503-12.075 7.61-24.659 14.383-37.662 20.269z" transform="translate(225.36 66.41)"/>
                <path fill="#FFF" d="M242.155 20.597c-22.42 9.712-26.874 6.717-26.874 6.717 1.943 1.401 3.767 2.961 5.451 4.665 3.244 3.147-.979 13.263-12.938 22.246-11.959 8.982-50.83 32.917-57.549 32.917-6.718 0-6.718-22.4-6.718-22.4-2.829 13.894-3.4 28.153-1.69 42.228l1.095-1.075s12.9-3.59 31.903-17.563c19.004-13.973 44.15-40.864 44.15-40.864s18.64-8.963 30.119-18.637c6.296-5.317 19.714-17.985 30.713-28.503-12.075 7.61-24.659 14.383-37.662 20.269zM147.404 143.995l-.21-.096s-1.556 23.282-5.433 38.81c-3.878 15.528-20.175 25.605-20.175 25.605l-8.542 23.283s-19.407 17.83-31.827 17.83c-12.42 0-14.032-10.076-14.032-10.076-11.69-9.943-37.048-16.795-53.498-12.918C11.114 246.76 3.954 277.51.25 292.75c6.93 3.704 18.044 7.197 34.34 5.585 16.838-1.837 33.283-6.3 48.739-13.225 1.632-6.525 4.799-15.163 11.517-20.134l3.744-2.745c-11.25 4.684-25.53 19.943-36.031 21.344-11.652 1.555-15.53-.768-14.742-5.432.787-4.664 16.93-1.708 22.497-3.839 5.567-2.13.787-3.09-10.865-4.645-11.652-1.554-9.31-6.219-9.31-6.219s18.908 1.574 22.498 0c3.59-1.573 28.793-7.677 40.311-17.85 11.517-10.173 12.516-31.766 12.516-31.766l8.945-4.472c.192-2.13.269-3.455.269-3.455s8.964-8.235 13.629-27.966c2.245-9.559.998-22.687-.903-33.935z" opacity=".5" transform="translate(225.36 66.41)"/>
            </g>
            <path stroke="#263238" stroke-linecap="round" d="M332.857 139.963s5.375-12.899 16.124-18.638c7.168-3.573 15.03-5.538 23.035-5.758l27.95-17.274s7.889-27.256 34.782-38.388C461.641 48.772 575.991 7.217 577.066 6.507c1.075-.71 14.34-7.179 14.34-6.104.014 1.846-.352 3.676-1.076 5.374-1.075 2.88-27.604 20.077-27.604 20.077s12.9-7.888 13.265-3.838c.364 4.05 0 5.01-4.665 7.888-4.664 2.88-13.264 8.235-15.05 9.31-1.785 1.074-8.599 7.523-13.993 8.253-5.394.73-18.985 1.785-20.06 2.86-1.075 1.075-36.222 35.125-47.682 44.818-11.46 9.693-30.118 18.637-30.118 18.637s-25.089 26.872-44.15 40.864c-19.062 13.993-31.904 17.563-31.904 17.563l-1.44 1.42s1.075 12.553 1.075 13.993c0 1.44 10.405 36.91 5.76 56.622-4.646 19.712-13.63 27.966-13.63 27.966s-1.42 23.301-7.16 31.9c-5.74 8.6-21.518 19.002-32.633 27.256-11.114 8.253-12.534 26.526-13.264 28.676-.73 2.15-9.598 38.714-14.34 47.658-4.74 8.945-19.195 13.993-21.594 14.703-1.306.384-14.666 20.653-27.527 19.655-17.202-1.216-30.874-14.927-32.038-32.131-.204-3.542-.075-7.096.384-10.614 2.86-21.882 11.517-30.96 11.517-30.96s18.37-71.767 16.566-90.769c-1.804-19.002-2.15-30.826 3.225-41.574 5.375-10.749 22.94-27.237 50.197-39.08 27.258-11.842 30.464-19.712 30.464-33.32.276-8.653 3.416-16.97 8.926-23.647z"/>
            <ellipse cx="341.034" cy="259.338" fill="#1C8" fill-rule="nonzero" rx="29.981" ry="19.196" transform="rotate(-76.76 341.034 259.338)"/>
            <path stroke="#263238" stroke-linecap="round" stroke-linejoin="round" d="M294.465 331.385c-19.368 4.3-26.874-5.029-26.874-5.029s2.15 14.338 22.594 16.488"/>
            <path stroke="#263238" stroke-linecap="round" d="M339.979 244.993s11.114 26.871 2.15 47.313c-8.965 20.442-21.884 28.234-46.243 32.265M316.675 331.73s-14.704 13.263-26.183 17.563c-11.48 4.3-20.424 11.843-30.1-1.075"/>
            <path stroke="#263238" stroke-linecap="round" stroke-linejoin="round" d="M432.1 98.734s8.964-6.084 13.974-.345-1.786 15.355-1.786 15.355M369.732 125.26c-1.942 9.596-3.358 19.29-4.242 29.04-.498 6.485-.02 13.007 1.42 19.348"/>
            <path stroke="#263238" stroke-linecap="round" d="M285.309 255.588L306.789 244.186"/>
            <path fill="#1C8" fill-rule="nonzero" stroke="#263238" stroke-linecap="round" stroke-linejoin="round" d="M576.931 6.622c-.96.633-91.775 33.685-130.531 48.753 3.494.153 21.806 1.689 26.663 17.562 2.135 6.769 3.122 13.847 2.918 20.941 12.746-11.075 45.167-42.496 46.204-43.532 1.037-1.037 14.685-2.15 20.06-2.86 5.374-.71 12.189-7.179 13.993-8.253 1.805-1.075 10.385-6.45 15.05-9.31 4.664-2.86 5.029-3.953 4.664-7.888-.364-3.935-13.264 3.839-13.264 3.839s26.529-17.275 27.604-20.077c.723-1.699 1.09-3.528 1.075-5.375-.096-.979-13.36 5.47-14.436 6.2z"/>
            <path fill="#FFF" fill-rule="nonzero" stroke="#263238" stroke-linecap="round" stroke-linejoin="round" d="M562.592 25.97L550.038 32.419"/>
            <path fill="#263238" fill-rule="nonzero" stroke="#263238" stroke-linecap="round" d="M309.534 348.66c-4.012 1.554-9.08 3.646-13.917 5.969-13.432 6.465-27.92 10.457-42.768 11.785-11.671.979-21.595-4.242-27.028-7.927-1.478 6.065-2.438 9.885-2.438 9.885s-8.657 9.079-11.517 30.96c-.46 3.518-.588 7.072-.384 10.614 1.164 17.204 14.836 30.915 32.038 32.13 12.861.999 26.221-19.193 27.527-19.654 2.495-.71 16.95-5.758 21.595-14.702 4.645-8.945 13.629-45.51 14.34-47.66.345-1.036.92-5.815 2.552-11.4z"/>
            <path stroke="#FFF" stroke-linecap="round" stroke-linejoin="round" stroke-width=".75" d="M232.655 378.948s15.357-6.622 30.867-1.114"/>
            <path fill="#1C8" fill-rule="nonzero" stroke="#263238" stroke-linecap="round" d="M265.058 360.1c-19.791 2.226-31.251-5.01-37.068-10.73-1.324 5.758-2.476 10.441-3.32 13.8 10.144 6.314 22.122 9.02 33.995 7.678 21.346-2.63 40.715-11.363 49.295-15.7h0c.077-.449.173-.91.288-1.383h0c.288-1.401.672-2.917 1.133-4.53 0-.096 0-.192.096-.307.153-.499.307-1.017.48-1.535.008-.077.008-.154 0-.23.592-1.775 1.29-3.512 2.092-5.202-13.898 9.885-30.056 16.121-46.991 18.138h0zM204.936 234.167s-3.474 1.766 9.06-6.468c12.536-8.234 8.754 3.685 17.277-17.467 8.523-21.152 17.929-36.91 33.343-42.649 15.414-5.739 60.947 2.514 60.947 2.514l10.75 7.525-14.973 29.02c-7.293-3.589-15.782-3.855-23.285-.728-12.19 5.374-18.658 11.823-17.276 17.562 1.382 5.74 12.9 21.517 12.9 21.517s-54.286-21.325-62.886-16.68c-8.6 4.645-34.802 14.165-36.242 14.895-1.44.729 10.385-9.04 10.385-9.04z"/>
            <path stroke="#263238" stroke-linecap="round" d="M238.356 217.372c1.824-2.668 3.84-5.758 5.893-9.309 9.33-15.758 27.969-22.572 27.969-22.572M273.58 202.708c-10.164 2.492-18.912 8.938-24.301 17.908"/>
            <path fill="#FFF" fill-rule="nonzero" d="M263.618 253.956s-21.864-3.224-38.392 10.749c-16.527 13.973-14.665 28.964-14.665 28.964s-16.144 7.159-19.369 15.355c-1.884 4.842-3.174 9.895-3.839 15.048 0 0-8.6 8.253-15.779 16.488-7.18 8.234-13.264 9.597-14.704 20.441-1.44 10.845-.71 37.275 7.18 63.437 7.889 26.161 13.264 37.64 15.356 42.226 2.092 4.588 20.789 28.312 24.014 29.041 3.225.73 6.45 1.42 8.964 0 2.515-1.42 21.116-5.758 20.444-11.113-.14-2.86-1.143-5.612-2.88-7.89l-.71-1.074s3.225-6.104 1.075-8.964c-2.15-2.86-3.954-3.224-7.89-6.813-3.934-3.59-6.084-4.665-10.749-4.665-4.665 0-9.598.365-9.598.365s-7.179-2.879-7.179-23.666 6.45-38.714 9.598-47.985c1.9-5.302 2.988-10.86 3.225-16.488 0 0 2.514 3.59 20.079-4.664 17.564-8.253 21.518-31.536 21.518-31.536l-25.876 4.108c12.668-1.11 25.172-3.635 37.278-7.524 20.08-6.45 28.679-7.524 36.472-38.005"/>
            <g fill-rule="nonzero">
                <path fill="#1C8" d="M74.04 63.206c-3.685-4.933 17.277-19.194 22.824-24.664 5.548-5.47-17.89 9.251-23.438 10.48-5.547 1.228-10.48-2.476-7.39-19.732C68.266 18.448 73.53 8.463 81.22.5c-4.172 1.731-8.055 4.087-11.518 6.987-16.49 13.973-14.685 29.04-14.685 29.04s-16.143 7.16-19.368 15.355c-1.885 4.842-3.174 9.896-3.84 15.049 0 0-8.6 8.253-15.778 16.487-7.18 8.234-13.265 9.597-14.704 20.442-1.44 10.845-.71 37.275 7.179 63.436 7.89 26.162 13.264 37.64 15.357 42.227 2.092 4.587 20.789 28.311 24.014 29.04 3.224.73 6.45 1.421 8.964 0 2.515-1.42 21.115-5.758 20.443-11.113-.16-1.298-.422-2.582-.787-3.839-6.872.864-19.445 5.26-22.823 5.26-3.686 0-7.39-5.547-12.938-11.728-5.548-6.18-14.186-22.188-15.357-41.92-1.17-19.731 7.39-38.234 7.39-47.486 0-9.251-11.095 12.342-8.638 3.09 2.457-9.251 12.343-22.821 19.734-26.526 7.39-3.704 16.047-6.16 19.195-12.322 3.148-6.161-11.095-1.92-6.161-6.795 4.933-4.875 37.009-11.21 47.49-17.275 10.48-6.065-26.644.23-30.349-4.702z" transform="translate(155.486 257.2)"/>
                <path fill="#FFF" d="M74.04 63.206c-3.685-4.933 17.277-19.194 22.824-24.664 5.548-5.47-17.89 9.251-23.438 10.48-5.547 1.228-10.48-2.476-7.39-19.732C68.266 18.448 73.53 8.463 81.22.5c-4.172 1.731-8.055 4.087-11.518 6.987-16.49 13.973-14.685 29.04-14.685 29.04s-16.143 7.16-19.368 15.355c-1.885 4.842-3.174 9.896-3.84 15.049 0 0-8.6 8.253-15.778 16.487-7.18 8.234-13.265 9.597-14.704 20.442-1.44 10.845-.71 37.275 7.179 63.436 7.89 26.162 13.264 37.64 15.357 42.227 2.092 4.587 20.789 28.311 24.014 29.04 3.224.73 6.45 1.421 8.964 0 2.515-1.42 21.115-5.758 20.443-11.113-.16-1.298-.422-2.582-.787-3.839-6.872.864-19.445 5.26-22.823 5.26-3.686 0-7.39-5.547-12.938-11.728-5.548-6.18-14.186-22.188-15.357-41.92-1.17-19.731 7.39-38.234 7.39-47.486 0-9.251-11.095 12.342-8.638 3.09 2.457-9.251 12.343-22.821 19.734-26.526 7.39-3.704 16.047-6.16 19.195-12.322 3.148-6.161-11.095-1.92-6.161-6.795 4.933-4.875 37.009-11.21 47.49-17.275 10.48-6.065-26.644.23-30.349-4.702z" opacity=".5" transform="translate(155.486 257.2)"/>
            </g>
            <path stroke="#263238" stroke-linecap="round" d="M263.618 253.956s-21.864-3.224-38.392 10.749c-16.527 13.973-14.665 28.964-14.665 28.964s-16.144 7.159-19.369 15.355c-1.884 4.842-3.174 9.895-3.839 15.048 0 0-8.6 8.253-15.779 16.488-7.18 8.234-13.264 9.597-14.704 20.441-1.44 10.845-.71 37.275 7.18 63.437 7.889 26.161 13.264 37.64 15.356 42.226 2.092 4.588 20.789 28.312 24.014 29.041 3.225.73 6.45 1.42 8.964 0 2.515-1.42 21.116-5.758 20.444-11.113-.14-2.86-1.143-5.612-2.88-7.89l-.71-1.074s3.225-6.104 1.075-8.964c-2.15-2.86-3.954-3.224-7.89-6.813-3.934-3.59-6.084-4.665-10.749-4.665-4.665 0-9.598.365-9.598.365s-7.179-2.879-7.179-23.666 6.45-38.714 9.598-47.985c1.9-5.302 2.988-10.86 3.225-16.488 0 0 2.514 3.59 20.079-4.664 17.564-8.253 21.518-31.536 21.518-31.536l-25.876 4.108c12.668-1.11 25.172-3.635 37.278-7.524 20.08-6.45 28.679-7.524 36.472-38.005"/>
            <path stroke="#263238" stroke-linecap="round" stroke-linejoin="round" d="M207.681 367.585L205.627 351.136"/>
            <path fill="#FFF" fill-rule="nonzero" d="M309.131 240.328c10.404-3.224 12.919-16.123 19.004-29.75 4.81-10.117 10.233-19.93 16.24-29.386-10.492.144-20.927-1.558-30.829-5.03-16.144-5.757-35.147-1.784-38.718 2.15-3.57 3.935-3.225-1.074-2.514 11.114.71 12.188 5.374 29.75 9.597 35.854 4.223 6.104 6.815 9.597 6.815 9.597"/>
            <g fill-rule="nonzero">
                <path fill="#1C8" d="M68.337 8.407c-8.97-.36-17.838-2.041-26.317-4.99C25.876-2.342 6.872 1.63 3.302 5.567-.268 9.5.077 4.49.787 16.68c.71 12.188 5.375 29.75 9.598 35.854l1.536 2.15L69.22 8.848l-.883-.441z" transform="translate(271.43 172.746)"/>
                <path fill="#FFF" d="M68.337 8.407c-8.97-.36-17.838-2.041-26.317-4.99C25.876-2.342 6.872 1.63 3.302 5.567-.268 9.5.077 4.49.787 16.68c.71 12.188 5.375 29.75 9.598 35.854l1.536 2.15L69.22 8.848l-.883-.441z" opacity=".5" transform="translate(271.43 172.746)"/>
            </g>
            <path stroke="#263238" stroke-linecap="round" d="M309.131 240.328c10.404-3.224 12.919-16.123 19.004-29.75 4.81-10.117 10.233-19.93 16.24-29.386-10.492.144-20.927-1.558-30.829-5.03-16.144-5.757-35.147-1.784-38.718 2.15-3.57 3.935-3.225-1.074-2.514 11.114.71 12.188 5.374 29.75 9.597 35.854 4.223 6.104 6.815 9.597 6.815 9.597"/>
            <path stroke="#263238" stroke-linecap="round" d="M306.636 219.177c6.364.049 12.707-.732 18.869-2.323.825-2.054 1.69-4.146 2.63-6.276 4.81-10.117 10.233-19.93 16.24-29.386-10.492.144-20.927-1.558-30.829-5.03-16.144-5.757-35.147-1.784-38.718 2.15-3.57 3.935-3.225-1.074-2.514 11.114.526 7.006 1.742 13.943 3.628 20.71 5.797 4.837 15.299 8.887 30.694 9.04z"/>
            <path stroke="#263238" stroke-linecap="round" stroke-linejoin="round" d="M310.014 234.647L301.376 196.624"/>
            <path fill="#263238" fill-rule="nonzero" stroke="#263238" stroke-linecap="round" d="M320.015 109.713c1.034-4.24 1.79-8.541 2.265-12.88.73-6.813-15.644-18.886-32.498-17.446-16.854 1.44-10.75 17.927-12.9 23.301-2.15 5.374-18.293-.365-22.593 9.31-4.3 9.673 3.225 12.552 3.225 15.354 0 2.803-13.265 10.404-11.518 27.256 1.747 16.852 30.829 33.32 37.278 34.76 6.45 1.44 14.34-4.664 14.34-9.597s10.75-6.814 13.629-11.516c2.879-4.703-4.665-20.787-4.32-24.377.346-3.589 11.518-17.908 7.89-21.497-3.628-3.59 5.202-12.668 5.202-12.668z"/>
            <path stroke="#FFF" stroke-linecap="round" stroke-linejoin="round" stroke-width=".75" d="M302.854 113.744s5.567-.614 5.567-12.956c0-12.342-17.89-9.252-20.367-4.319-2.476 4.933-.614 14.185-6.776 16.66-6.162 2.477-16.048 2.457-16.048 7.39v6.795M286.787 123.61s-22.824-1.229-34.552 19.731M289.916 129.157s-15.357.614-23.438 11.094"/>
            <path fill="#FFF" fill-rule="nonzero" d="M316.214 111.978c1.018-1.324 14.282 12.457 14.8 14.012.524 1.894.94 3.817 1.248 5.758.122.733.538 1.385 1.152 1.804l9.271 6.353c1.245.871 1.561 2.58.71 3.84l-3.224 4.644c-.572.805-.66 1.856-.23 2.745 2.59 5.566 11.766 25.336 11.152 26.871-.721 1.886-2.136 3.424-3.954 4.3-1.786.71-34.764 11.823-38.718 12.188-3.033.269-10.328-12.188-13.552-17.985-.79-1.33-2.509-1.768-3.84-.979-2.808 1.622-6.244 1.715-9.137.25-7.179-3.244-15.356-9.328-11.844-16.142 3.513-6.814 9.33-7.16 11.844-5.375 1.67 1.19 4.626 3.686 6.412 5.183.882.766 2.153.89 3.167.307l1.516-.883c.733-.4 1.245-1.11 1.39-1.931.146-.822-.09-1.665-.641-2.292-.574-.729-1.028-1.545-1.344-2.418 0 0 10.385-8.964 6.815-13.973-3.57-5.01-13.264-12.553-12.19-16.488 1.075-3.935 15.357-8.964 21.5-8.964 2.284-.076 6.949.173 7.697-.825z"/>
            <g fill-rule="nonzero">
                <path fill="#1C8" d="M30.37 17.275c3.57 5.01-6.815 13.973-6.815 13.973.316.873.77 1.69 1.344 2.418.551.627.787 1.47.641 2.292-.145.821-.657 1.532-1.39 1.931l-1.516.883c-1.013.582-2.285.46-3.167-.307-1.785-1.497-4.742-3.993-6.412-5.183-2.514-1.785-8.254-1.44-11.843 5.375-3.59 6.814 4.664 12.898 11.843 16.142 2.893 1.465 6.33 1.372 9.138-.25 1.33-.789 3.049-.35 3.839.98 3.225 5.758 10.519 18.253 13.552 17.984 3.954-.365 36.933-11.516 38.718-12.188 1.818-.876 3.233-2.414 3.954-4.3 0 0-14.243 6.738-21.998-.25-7.755-6.986-17.852-17.063-20.962-21.727-3.11-4.664 3.36-14.971-3.11-24.837C29.717.345 18.085.75 18.085.75c-.98 3.954 8.695 11.478 12.285 16.526z" transform="translate(268.74 120.922)"/>
                <path fill="#FFF" d="M30.37 17.275c3.57 5.01-6.815 13.973-6.815 13.973.316.873.77 1.69 1.344 2.418.551.627.787 1.47.641 2.292-.145.821-.657 1.532-1.39 1.931l-1.516.883c-1.013.582-2.285.46-3.167-.307-1.785-1.497-4.742-3.993-6.412-5.183-2.514-1.785-8.254-1.44-11.843 5.375-3.59 6.814 4.664 12.898 11.843 16.142 2.893 1.465 6.33 1.372 9.138-.25 1.33-.789 3.049-.35 3.839.98 3.225 5.758 10.519 18.253 13.552 17.984 3.954-.365 36.933-11.516 38.718-12.188 1.818-.876 3.233-2.414 3.954-4.3 0 0-14.243 6.738-21.998-.25-7.755-6.986-17.852-17.063-20.962-21.727-3.11-4.664 3.36-14.971-3.11-24.837C29.717.345 18.085.75 18.085.75c-.98 3.954 8.695 11.478 12.285 16.526z" opacity=".5" transform="translate(268.74 120.922)"/>
            </g>
            <path stroke="#263238" stroke-linecap="round" d="M316.214 111.978c1.018-1.324 14.282 12.457 14.8 14.012.524 1.894.94 3.817 1.248 5.758.122.733.538 1.385 1.152 1.804l9.271 6.353c1.245.871 1.561 2.58.71 3.84l-3.224 4.644c-.572.805-.66 1.856-.23 2.745 2.59 5.566 11.766 25.336 11.152 26.871-.721 1.886-2.136 3.424-3.954 4.3-1.786.71-34.764 11.823-38.718 12.188-3.033.269-10.328-12.188-13.552-17.985-.79-1.33-2.509-1.768-3.84-.979-2.808 1.622-6.244 1.715-9.137.25-7.179-3.244-15.356-9.328-11.844-16.142 3.513-6.814 9.33-7.16 11.844-5.375 1.67 1.19 4.626 3.686 6.412 5.183.882.766 2.153.89 3.167.307l1.516-.883c.733-.4 1.245-1.11 1.39-1.931.146-.822-.09-1.665-.641-2.292h0c-.574-.729-1.028-1.545-1.344-2.418 0 0 10.385-8.964 6.815-13.973-3.57-5.01-13.264-12.553-12.19-16.488 1.075-3.935 15.357-8.964 21.5-8.964 2.284-.076 6.949.173 7.697-.825z"/>
            <path fill="#263238" fill-rule="nonzero" d="M326.273 131.172s-7.678 0-9.848 1.094c-2.169 1.094-4.933 8.753-4.933 8.753l7.122-4.377 8.196-1.631 2.189-6.008-2.726 2.169z"/>
            <path fill="#FFF" fill-rule="nonzero" stroke="#263238" stroke-linecap="round" d="M326.81 138.83L320.245 142.113 326.81 142.113"/>
            <path fill="#FFF" fill-rule="nonzero" d="M319.9 490.177c-12.417 3.82-24.332 9.11-35.493 15.758-16.816 10.384-44.822 26.891-57.357 27.659-12.535.768-16.49-3.225-24.014-6.084-7.525-2.86-11.517 6.449-11.517 11.823 0 5.374 0 7.889-3.59 12.918-3.59 5.028-12.861 23.57-12.861 23.57s-5.03 20.077 0 20.787c5.029.71 8.235-6.084 18.639-14.683 10.404-8.6 26.874-27.256 41.578-28.676 14.704-1.42 80.315-8.254 107.496-21.114 27.181-12.86 25.454-9.328 33.343-15.355 7.89-6.027 5.01-17.562 1.075-25.451-2.093-4.459-5.156-8.393-8.964-11.517"/>
            <g fill-rule="nonzero">
                <path fill="#1C8" d="M186.22 41.96c-3.224-.576-5.758-1.42-5.758-2.61 0-3.11 9.31-3.11 13.974-9.31 4.665-6.2-.787-12.419-6.987-19.405-2.38-2.668-5.317-6.488-8.485-10.211l-31.75 6.833c-12.416 3.82-24.332 9.11-35.492 15.758-16.893 10.384-44.9 26.89-57.434 27.659-12.535.767-16.49-3.225-24.014-6.085-7.525-2.86-11.517 6.45-11.517 11.824s0 7.888-3.59 12.917S2.306 92.9 2.306 92.9s-5.03 20.077 0 20.788c5.029.71 8.235-6.085 18.639-14.684S47.819 71.75 62.523 70.328c14.704-1.42 80.315-8.253 107.496-21.113 7.218-3.417 12.343-5.662 16.201-7.255z" transform="translate(172.762 482.92)"/>
                <path fill="#FFF" d="M186.22 41.96c-3.224-.576-5.758-1.42-5.758-2.61 0-3.11 9.31-3.11 13.974-9.31 4.665-6.2-.787-12.419-6.987-19.405-2.38-2.668-5.317-6.488-8.485-10.211l-31.75 6.833c-12.416 3.82-24.332 9.11-35.492 15.758-16.893 10.384-44.9 26.89-57.434 27.659-12.535.767-16.49-3.225-24.014-6.085-7.525-2.86-11.517 6.45-11.517 11.824s0 7.888-3.59 12.917S2.306 92.9 2.306 92.9s-5.03 20.077 0 20.788c5.029.71 8.235-6.085 18.639-14.684S47.819 71.75 62.523 70.328c14.704-1.42 80.315-8.253 107.496-21.113 7.218-3.417 12.343-5.662 16.201-7.255z" opacity=".5" transform="translate(172.762 482.92)"/>
            </g>
            <path stroke="#263238" stroke-linecap="round" d="M319.9 490.177c-12.417 3.82-24.332 9.11-35.493 15.758-16.816 10.384-44.822 26.891-57.357 27.659-12.535.768-16.49-3.225-24.014-6.084-7.525-2.86-11.517 6.449-11.517 11.823 0 5.374 0 7.889-3.59 12.918-3.59 5.028-12.861 23.57-12.861 23.57s-5.03 20.077 0 20.787c5.029.71 8.235-6.084 18.639-14.683 10.404-8.6 26.874-27.256 41.578-28.676 14.704-1.42 80.315-8.254 107.496-21.114 27.181-12.86 25.454-9.328 33.343-15.355 7.89-6.027 5.01-17.562 1.075-25.451-2.093-4.459-5.156-8.393-8.964-11.517"/>
            <path fill="#FFF" fill-rule="nonzero" d="M378.754 495.206s-8.542-33.378-65.669-81.651c-38.391-32.477-55.571-39.425-77.435-20.077-21.864 19.347-17.565 31.92-9.598 44.146 7.966 12.226 40.138 35.49 66.667 47.332 26.528 11.843 53.421 28.312 68.471 26.872"/>
            <g fill-rule="nonzero">
                <path fill="#1C8" d="M117.25 84.09c-7.774-.767 6.2 14.76-10.097 10.864C90.856 91.058 34.21 42.977 22.557 27.45 12.96 14.666 21.271 4.013 24.477.577c-2.716 1.701-5.285 3.627-7.678 5.758C-5.065 25.702-.766 38.235 7.2 50.482c7.966 12.245 40.138 35.49 66.667 47.332 26.528 11.843 53.421 28.311 68.47 26.872l7.16-6.718c-1.285-3.647-4.587-7.39-8.138-11.401-6.22-6.949-16.355-21.69-24.11-22.477z" transform="translate(218.832 386.95)"/>
                <path fill="#FFF" d="M117.25 84.09c-7.774-.767 6.2 14.76-10.097 10.864C90.856 91.058 34.21 42.977 22.557 27.45 12.96 14.666 21.271 4.013 24.477.577c-2.716 1.701-5.285 3.627-7.678 5.758C-5.065 25.702-.766 38.235 7.2 50.482c7.966 12.245 40.138 35.49 66.667 47.332 26.528 11.843 53.421 28.311 68.47 26.872l7.16-6.718c-1.285-3.647-4.587-7.39-8.138-11.401-6.22-6.949-16.355-21.69-24.11-22.477z" opacity=".5" transform="translate(218.832 386.95)"/>
            </g>
            <path stroke="#263238" stroke-linecap="round" d="M378.754 495.206s-8.542-33.378-65.669-81.651c-38.391-32.477-55.571-39.425-77.435-20.077-21.864 19.347-17.565 31.92-9.598 44.146 7.966 12.226 40.138 35.49 66.667 47.332 26.528 11.843 53.421 28.312 68.471 26.872"/>
            <path fill="#1C8" fill-rule="nonzero" d="M290.857 526.742c-3.628-8.004-2.745-17.006-.999-23.954-1.823.998-3.647 2.034-5.451 3.147-16.816 10.384-44.822 26.891-57.357 27.659-12.535.768-16.49-3.225-24.014-6.084-7.525-2.86-11.517 6.449-11.517 11.823 0 5.374 0 7.889-3.59 12.918-3.59 5.028-12.861 23.57-12.861 23.57s-5.03 20.077 0 20.787c5.029.71 8.235-6.084 18.639-14.683 10.404-8.6 26.874-27.256 41.578-28.676 24.598-2.336 49.06-5.93 73.29-10.768-7.753-2.702-14.122-8.36-17.718-15.74z"/>
            <path fill="#000" fill-rule="nonzero" d="M290.857 526.742c-3.628-8.004-2.745-17.006-.999-23.954-1.823.998-3.647 2.034-5.451 3.147-16.816 10.384-44.822 26.891-57.357 27.659-12.535.768-16.49-3.225-24.014-6.084-7.525-2.86-11.517 6.449-11.517 11.823 0 5.374 0 7.889-3.59 12.918-3.59 5.028-12.861 23.57-12.861 23.57s-5.03 20.077 0 20.787c5.029.71 8.235-6.084 18.639-14.683 10.404-8.6 26.874-27.256 41.578-28.676 24.598-2.336 49.06-5.93 73.29-10.768-7.753-2.702-14.122-8.36-17.718-15.74z" opacity=".2"/>
            <path stroke="#263238" stroke-linecap="round" stroke-linejoin="round" d="M290.857 526.742c-3.628-8.004-2.745-17.006-.999-23.954-1.823.998-3.647 2.034-5.451 3.147-16.816 10.384-44.822 26.891-57.357 27.659-12.535.768-16.49-3.225-24.014-6.084-7.525-2.86-11.517 6.449-11.517 11.823 0 5.374 0 7.889-3.59 12.918-3.59 5.028-12.861 23.57-12.861 23.57s-5.03 20.077 0 20.787c5.029.71 8.235-6.084 18.639-14.683 10.404-8.6 26.874-27.256 41.578-28.676 24.598-2.336 49.06-5.93 73.29-10.768-7.753-2.702-14.122-8.36-17.718-15.74h0zM228.643 432.691s78.415 50.173 101.411 58.542c22.997 8.368 17.776-7.332 17.776-7.332M298.689 530.945s21.96 2.092 36.587-11.516"/>
            <path fill="#1C8" fill-rule="nonzero" stroke="#263238" stroke-linecap="round" d="M293.87 249.983s-27.795-18.177-59.967-14.338c-32.172 3.839-70.372 36.737-95.134 64.876-24.763 28.138-134.85 181.614-134.85 181.614L.5 457.048c-1.599-11.818 1.525-23.79 8.696-33.32l17.487-23.283s1.747-28.637 17.277-43.34c10.31-9.644 21.514-18.288 33.458-25.816 4.012-2.764 44.15-42.975 72.464-71.728 28.314-28.753 62.674-49.348 93.81-40.634 31.135 8.714 43.612 15.355 50.868 21.766 7.256 6.41 7.506 5.758 7.506 5.758l-8.197 3.532z"/>
            <path stroke="#263238" stroke-linecap="round" d="M105.176 318.199L111.645 310.924M26.684 400.445L102.508 320.694M211.06 231.384c-2.035.806-4.07 1.708-6.124 2.764M297.364 249.196s-39.217-31.536-80.238-19.847"/>
            <path fill="#1C8" fill-rule="nonzero" d="M229.2 475.84s3.225-6.105 1.075-8.964c-2.15-2.86-3.955-3.225-7.89-6.814-3.935-3.59-6.085-4.664-10.75-4.664-4.664 0-9.597.364-9.597.364s-7.18-2.879-7.18-23.666c.19-12.833 2.299-25.565 6.258-37.774-6.283 3.719-13.322 5.976-20.597 6.603-8.87.963-17.612-2.698-23.15-9.693 1.166 11.29 3.363 22.45 6.565 33.34 7.89 26.161 13.264 37.64 15.357 42.227 2.092 4.587 20.789 28.311 24.014 29.04 3.225.73 6.45 1.42 8.964 0 2.515-1.42 21.115-5.758 20.444-11.113-.14-2.86-1.143-5.611-2.88-7.889l-.633-.998z"/>
            <g>
                <path fill="#000" fill-rule="nonzero" d="M75.384 94.014c0-.576-.173-1.094-.269-1.574v-.46c0-.154-.153-.692-.23-.999-.077-.307-.154-.518-.211-.748-6.872.863-19.446 5.259-22.824 5.259-3.686 0-7.39-5.547-12.938-11.728-5.548-6.18-14.186-22.188-15.357-41.92-.748-11.823 2.054-23.186 4.415-32.418-1.535.307-3.11.537-4.798.71-8.87.963-17.613-2.698-23.15-9.693 0 .499.115 1.017.172 1.516.096.883.211 1.766.327 2.687 0 .595.172 1.229.25 1.92.076.69.249 1.65.364 2.495.115.844.21 1.286.307 1.92.096.633.288 1.688.441 2.533l.346 1.92.46 2.61.404 1.92c.192.901.403 1.823.614 2.744.134.614.269 1.228.422 1.823.25 1.037.519 2.073.787 3.09.116.519.25 1.037.384 1.536.423 1.555.864 3.11 1.325 4.645 7.89 26.162 13.264 37.64 15.356 42.227.175.37.374.73.595 1.075.384.652.883 1.44 1.498 2.341 1.017 1.498 2.322 3.283 3.839 5.24l.902 1.171c6.373 8.388 15.126 18.734 17.276 19.194 3.225.71 6.45 1.42 8.965 0 .932-.439 1.894-.81 2.88-1.113l1.477-.48c6.143-1.996 16.509-5.413 15.971-9.443z" opacity=".2" transform="translate(157.405 390.79)"/>
                <path stroke="#263238" stroke-linecap="round" stroke-linejoin="round" d="M69.74 78.659L65.23 82.4s3.34-.23 7.275 3.724" transform="translate(157.405 390.79)"/>
            </g>
            <path stroke="#263238" stroke-linecap="round" stroke-linejoin="round" d="M229.2 475.84s3.225-6.105 1.075-8.964c-2.15-2.86-3.955-3.225-7.89-6.814-3.935-3.59-6.085-4.664-10.75-4.664-4.664 0-9.597.364-9.597.364s-7.18-2.879-7.18-23.666c.19-12.833 2.299-25.565 6.258-37.774-6.283 3.719-13.322 5.976-20.597 6.603-8.87.963-17.612-2.698-23.15-9.693 1.166 11.29 3.363 22.45 6.565 33.34 7.89 26.161 13.264 37.64 15.357 42.227 2.092 4.587 20.789 28.311 24.014 29.04 3.225.73 6.45 1.42 8.964 0 2.515-1.42 21.115-5.758 20.444-11.113-.14-2.86-1.143-5.611-2.88-7.889l-.633-.998z"/>
        </g>
        <g stroke="#263238" stroke-linecap="round" stroke-linejoin="round">
            <path d="M567.693.692L505.904 58.686M500.109 64.115L490.092 73.515M120.028 368.107L109.244 378.237M199.817 293.251L128.702 359.973M266.73 500.862L259.591 507.557M311.287 459.04L273.945 494.071M9.153 400.797L.537 408.893M91.129 323.907L20.705 389.977M216.185 125.696L205.382 135.826M295.974 50.84L225.55 116.929M552.38 29.948L461.788 114.934" transform="translate(0 1) translate(0 101)"/>
        </g>
        <g fill="#FFF" fill-rule="nonzero">
            <path d="M548.04 223.627c-13.067-7.137-18.996-1.192-23.736-7.137-4.74-5.944 13.049-21.43-22.565-36.818 0 0-2.38-33.337-51.06-34.626-48.681-1.29-35.614 33.337-48.681 41.666-13.068 8.33-16.618-4.77-29.685 3.578-13.067 8.349-7.119 25.008-17.807 27.374-10.688 2.366-24.945-10.715-37.993-2.385-13.048 8.329-13.067 15.389-18.996 15.389-5.93 0-17.807-4.752-24.945 0-7.138 4.751-15.447 10.715-15.447 10.715H557.54s3.53-10.619-9.499-17.756zM112.829 30.992c-5.047-2.75-7.33-.462-9.173-2.75-1.842-2.29 5.047-8.273-8.692-14.236 0 0-.92-12.87-19.706-13.33-18.786-.463-13.74 12.868-18.786 16.08-5.046 3.213-6.409-1.923-11.513 1.367s-2.744 9.618-6.87 10.58c-4.125.962-9.593-4.136-14.66-.924-5.065 3.213-5.046 5.964-7.33 5.964-2.283 0-6.869-1.828-9.593 0C3.78 35.57.557 37.879.557 37.879h115.917s1.344-4.136-3.645-6.887z" transform="translate(0 1) translate(138 110)"/>
        </g>
    </g>
</svg>
