<svg width="720" height="644" viewBox="0 0 720 644" fill="none" xmlns="http://www.w3.org/2000/svg">
<path d="M705.556 227.78C672.562 128.582 586.262 45.136 482.276 20.452C364.765 -7.459 238.488 38.01 142.29 104.974C107.187 129.408 74.4428 158.414 49.0458 193.03C-37.6962 311.4 108.088 374.253 104.425 433.4C100.761 492.546 6.59481 505.474 78.5668 586.807C150.539 668.14 377.579 649.641 554.765 555.38C613.27 524.26 669.435 480.982 697.442 419.146C725.966 356.081 725.889 288.944 705.556 227.781V227.78Z" fill="#FF707C"/>
<path opacity="0.7" d="M705.556 227.78C672.562 128.582 586.262 45.136 482.276 20.452C364.765 -7.459 238.488 38.01 142.29 104.974C107.187 129.408 74.4428 158.414 49.0458 193.03C-37.6962 311.4 108.088 374.253 104.425 433.4C100.761 492.546 6.59481 505.474 78.5668 586.807C150.539 668.14 377.579 649.641 554.765 555.38C613.27 524.26 669.435 480.982 697.442 419.146C725.966 356.081 725.889 288.944 705.556 227.781V227.78Z" fill="white"/>
<path d="M226.888 541.005C207.174 553.903 184.946 588.318 173.831 602.291C162.717 616.265 162.736 636.341 158.071 641.716C153.407 647.09 137.283 630.603 140.795 618.414C144.308 606.226 150.393 603.731 149.05 597.992C147.706 592.252 144.385 588.664 147.975 581.14C151.565 573.615 161.949 580.794 172.353 573.615C182.757 566.437 193.143 535.611 206.042 503.365C218.942 471.119 246.199 471.81 249.424 466.801C252.649 461.791 270.924 396.531 289.582 399.775C308.24 403.019 341.948 435.975 331.218 453.979C320.488 471.983 307.914 471.561 292.826 481.945C277.738 492.329 279.562 494.498 269.522 505.246C259.482 515.995 252.246 517.799 246.929 519.22C246.929 519.22 239.404 527.473 234.739 533.558C230.075 539.642 226.889 541.005 226.889 541.005H226.888Z" fill="white"/>
<path d="M190.972 560.507C197.173 548.875 215.793 520.928 235.123 503.865C254.453 486.801 315.841 461.177 315.841 461.177L327.781 458.797C328.998 457.227 330.12 455.587 331.141 453.883C341.891 435.975 308.201 403 289.562 399.775C270.923 396.551 252.63 461.772 249.405 466.801C246.18 471.83 218.941 471.101 206.022 503.366C193.104 535.631 182.719 566.456 172.334 573.616C161.949 580.776 151.544 573.616 147.955 581.14C144.365 588.664 147.59 592.253 149.03 597.992C150.47 603.732 144.366 606.246 140.776 618.415C137.186 630.584 153.33 647.091 158.052 641.716C159.818 638.986 161.025 635.933 161.603 632.733C158.65 624.766 157.797 616.173 159.127 607.781C161.507 588.453 184.754 572.157 190.973 560.506L190.972 560.507Z" fill="#FFD4D8"/>
<path opacity="0.5" d="M190.972 560.507C197.173 548.875 215.793 520.928 235.123 503.865C254.453 486.801 315.841 461.177 315.841 461.177L327.781 458.797C328.998 457.227 330.12 455.587 331.141 453.883C341.891 435.975 308.201 403 289.562 399.775C270.923 396.551 252.63 461.772 249.405 466.801C246.18 471.83 218.941 471.101 206.022 503.366C193.104 535.631 182.719 566.456 172.334 573.616C161.949 580.776 151.544 573.616 147.955 581.14C144.365 588.664 147.59 592.253 149.03 597.992C150.47 603.732 144.366 606.246 140.776 618.415C137.186 630.584 153.33 647.091 158.052 641.716C159.818 638.986 161.025 635.933 161.603 632.733C158.65 624.766 157.797 616.173 159.127 607.781C161.507 588.453 184.754 572.157 190.973 560.506L190.972 560.507Z" fill="white"/>
<path fill-rule="evenodd" clip-rule="evenodd" d="M226.888 541.005C207.174 553.903 184.946 588.318 173.831 602.291C162.717 616.265 162.736 636.341 158.071 641.716C153.407 647.09 137.283 630.603 140.795 618.414C144.308 606.226 150.393 603.731 149.05 597.992C147.706 592.252 144.385 588.664 147.975 581.14C151.565 573.615 161.949 580.794 172.353 573.615C182.757 566.437 193.143 535.611 206.042 503.365C218.942 471.119 246.199 471.81 249.424 466.801C252.649 461.791 270.924 396.531 289.582 399.775C308.24 403.019 341.948 435.975 331.218 453.979C320.488 471.983 307.914 471.561 292.826 481.945C277.738 492.329 279.562 494.498 269.522 505.246C259.482 515.995 252.246 517.799 246.929 519.22C246.929 519.22 239.404 527.473 234.739 533.558C230.075 539.642 226.889 541.005 226.889 541.005H226.888Z" stroke="#263238" stroke-linecap="round"/>
<path d="M224.163 542.924C219.793 542.654 215.503 541.641 211.474 539.93C203.604 536.629 200.514 528.087 199.362 520.525C189.457 545.957 180.934 567.742 172.488 573.615C162.084 580.795 151.698 573.615 148.109 581.14C144.519 588.664 147.744 592.253 149.184 597.992C150.624 603.731 144.519 606.245 140.93 618.414C137.34 630.584 153.484 647.09 158.206 641.716C162.928 636.342 162.871 616.265 173.966 602.291C184.543 588.951 205.159 557.031 224.163 542.924V542.924Z" fill="#FF3C4B"/>
<path opacity="0.2" d="M158.073 641.716C158.344 641.391 158.588 641.045 158.803 640.679L158.975 640.392C159.186 640.008 159.397 639.585 159.608 639.106C159.608 639.106 159.608 638.933 159.704 638.856C159.877 638.434 160.05 637.992 160.204 637.532C160.264 637.388 160.314 637.24 160.357 637.09C160.549 636.553 160.722 635.996 160.894 635.42L161.067 634.806C161.182 634.365 161.317 633.904 161.451 633.424L161.624 632.734C158.67 624.766 157.818 616.173 159.148 607.781C161.47 588.376 184.755 572.08 190.974 560.429C195.611 552.137 200.772 544.149 206.427 536.513C202.185 532.368 200.227 526.149 199.363 520.467L197.673 524.767L197.405 525.497L195.715 529.796L194.122 533.826L193.854 534.498C193.335 535.803 192.817 537.089 192.299 538.337L192.03 539.009C191.512 540.295 190.993 541.561 190.475 542.847L188.939 546.456L188.652 547.128C188.152 548.279 187.653 549.393 187.154 550.487L186.924 551.024L185.523 554.057L185.369 554.383C184.869 555.42 184.39 556.418 183.91 557.377C183.814 557.588 183.699 557.78 183.603 557.953C183.123 558.913 182.643 559.873 182.163 560.736L181.991 561.063L180.628 563.462L180.417 563.827C179.937 564.633 179.476 565.381 178.996 566.111L178.708 566.533C178.228 567.263 177.748 567.934 177.288 568.567L177.153 568.721C176.712 569.316 176.251 569.873 175.81 570.391L175.56 570.679C175.1 571.216 174.62 571.677 174.159 572.119L173.89 572.368C173.434 572.781 172.953 573.165 172.45 573.52C169.6 575.47 166.293 576.646 162.852 576.936C160.932 577.128 159.282 577.128 157.65 577.147C156.148 577.123 154.647 577.212 153.159 577.416C150.915 577.608 148.949 578.994 148.014 581.044C147.044 582.934 146.489 585.007 146.382 587.128C146.362 587.815 146.401 588.502 146.498 589.182C146.537 589.505 146.594 589.825 146.67 590.142C147.208 592.694 148.379 595.036 149.089 597.819C149.25 598.479 149.321 599.156 149.3 599.835C149.147 602.407 147.38 604.575 145.461 607.935C143.489 611.153 141.953 614.619 140.892 618.242C140.076 621.418 140.256 624.769 141.411 627.839C142.261 630.234 143.437 632.501 144.904 634.576C145.384 635.266 145.884 635.919 146.402 636.496C150.548 641.639 155.75 644.403 158.072 641.716H158.073Z" fill="black"/>
<path fill-rule="evenodd" clip-rule="evenodd" d="M224.163 542.924C219.793 542.654 215.503 541.641 211.474 539.93C203.604 536.629 200.514 528.087 199.362 520.525C189.457 545.957 180.934 567.742 172.488 573.615C162.084 580.795 151.698 573.615 148.109 581.14C144.519 588.664 147.744 592.253 149.184 597.992C150.624 603.731 144.519 606.245 140.93 618.414C137.34 630.584 153.484 647.09 158.206 641.716C162.928 636.342 162.871 616.265 173.966 602.291C184.543 588.951 205.159 557.031 224.163 542.924V542.924Z" stroke="#263238" stroke-linecap="round"/>
<path d="M140.393 349.218C140.393 349.218 157.957 372.865 176.597 372.596C195.236 372.328 206.1 355.821 215.679 356.953C222.76 358.025 229.7 359.879 236.372 362.481C236.372 362.481 302.943 273.287 318.262 258.181C333.58 243.075 342.429 225.781 321.39 220.445C300.352 215.109 256.413 224.572 234.376 243.939C212.339 263.306 142.505 340.369 142.505 340.369L140.393 349.219V349.218Z" fill="#FF3C4B"/>
<path opacity="0.5" d="M140.393 349.218C140.393 349.218 157.957 372.865 176.597 372.596C195.236 372.328 206.1 355.821 215.679 356.953C222.76 358.025 229.7 359.879 236.372 362.481C236.372 362.481 302.943 273.287 318.262 258.181C333.58 243.075 342.429 225.781 321.39 220.445C300.352 215.109 256.413 224.572 234.376 243.939C212.339 263.306 142.505 340.369 142.505 340.369L140.393 349.219V349.218Z" fill="black" stroke="#263238" stroke-linecap="round"/>
<path fill-rule="evenodd" clip-rule="evenodd" d="M140.393 349.218C140.393 349.218 157.957 372.865 176.597 372.596C195.236 372.328 206.1 355.821 215.679 356.953C222.76 358.025 229.7 359.879 236.372 362.481C236.372 362.481 302.943 273.287 318.262 258.181C333.58 243.075 342.429 225.781 321.39 220.445C300.352 215.109 256.413 224.572 234.376 243.939C212.339 263.306 142.505 340.369 142.505 340.369L140.393 349.219V349.218Z" stroke="#263238" stroke-linecap="round"/>
<path d="M391.857 140.963C391.857 140.963 397.232 128.064 407.981 122.325C415.149 118.752 423.011 116.787 431.016 116.567L458.966 99.293C458.966 99.293 466.855 72.037 493.748 60.905C520.641 49.772 634.991 8.217 636.066 7.507C637.141 6.797 650.406 0.327996 650.406 1.403C650.42 3.249 650.054 5.079 649.33 6.777C648.255 9.657 621.726 26.854 621.726 26.854C621.726 26.854 634.626 18.966 634.991 23.016C635.355 27.066 634.991 28.026 630.326 30.904C625.662 33.784 617.062 39.139 615.276 40.214C613.491 41.288 606.677 47.737 601.283 48.467C595.889 49.197 582.298 50.252 581.223 51.327C580.148 52.402 545.001 86.452 533.541 96.145C522.081 105.838 503.423 114.782 503.423 114.782C503.423 114.782 478.334 141.654 459.273 155.646C440.211 169.639 427.369 173.209 427.369 173.209L425.929 174.629C425.929 174.629 427.004 187.182 427.004 188.622C427.004 190.062 437.409 225.532 432.764 245.244C428.118 264.956 419.134 273.21 419.134 273.21C419.134 273.21 417.714 296.511 411.974 305.11C406.234 313.71 390.456 324.112 379.341 332.366C368.227 340.619 366.807 358.892 366.077 361.042C365.347 363.192 356.479 399.756 351.737 408.7C346.997 417.645 332.542 422.693 330.143 423.403C328.837 423.787 315.477 444.056 302.616 443.058C285.414 441.842 271.742 428.131 270.578 410.927C270.374 407.385 270.503 403.831 270.962 400.313C273.822 378.431 282.479 369.353 282.479 369.353C282.479 369.353 300.849 297.586 299.045 278.584C297.241 259.582 296.895 247.758 302.27 237.01C307.645 226.261 325.21 209.773 352.467 197.93C379.725 186.088 382.931 178.218 382.931 164.61C383.207 155.957 386.347 147.64 391.857 140.963V140.963Z" fill="white"/>
<path d="M431.764 211.405L431.554 211.309C431.554 211.309 429.998 234.591 426.121 250.119C422.243 265.647 405.946 275.724 405.946 275.724L397.404 299.007C397.404 299.007 377.997 316.837 365.577 316.837C353.157 316.837 351.545 306.761 351.545 306.761C339.855 296.818 314.497 289.966 298.047 293.843C295.474 314.17 288.314 344.92 284.61 360.16C291.54 363.864 302.654 367.357 318.95 365.745C335.788 363.908 352.233 359.445 367.689 352.52C369.321 345.995 372.488 337.357 379.206 332.386L382.95 329.641C371.7 334.325 357.42 349.584 346.919 350.985C335.267 352.54 331.389 350.217 332.177 345.553C332.964 340.889 349.107 343.845 354.674 341.714C360.241 339.584 355.461 338.624 343.809 337.069C332.157 335.515 334.499 330.85 334.499 330.85C334.499 330.85 353.407 332.424 356.997 330.85C360.587 329.277 385.79 323.173 397.308 313C408.825 302.827 409.824 281.234 409.824 281.234L418.769 276.762C418.961 274.632 419.038 273.307 419.038 273.307C419.038 273.307 428.002 265.072 432.667 245.341C434.912 235.782 433.665 222.654 431.764 211.406V211.405ZM526.515 88.007C504.095 97.719 499.641 94.724 499.641 94.724C501.584 96.125 503.408 97.685 505.092 99.389C508.336 102.536 504.113 112.652 492.154 121.635C480.195 130.617 441.324 154.552 434.605 154.552C427.887 154.552 427.887 132.152 427.887 132.152C425.058 146.046 424.487 160.305 426.197 174.38L427.292 173.305C427.292 173.305 440.192 169.715 459.195 155.742C478.199 141.769 503.345 114.878 503.345 114.878C503.345 114.878 521.985 105.915 533.464 96.241C539.76 90.924 553.178 78.256 564.177 67.738C552.102 75.348 539.518 82.121 526.515 88.007V88.007Z" fill="#FFD4D8"/>
<path opacity="0.5" d="M526.515 88.007C504.095 97.719 499.641 94.724 499.641 94.724C501.584 96.125 503.408 97.685 505.092 99.389C508.336 102.536 504.113 112.652 492.154 121.635C480.195 130.617 441.324 154.552 434.605 154.552C427.887 154.552 427.887 132.152 427.887 132.152C425.058 146.046 424.487 160.305 426.197 174.38L427.292 173.305C427.292 173.305 440.192 169.715 459.195 155.742C478.199 141.769 503.345 114.878 503.345 114.878C503.345 114.878 521.985 105.915 533.464 96.241C539.76 90.924 553.178 78.256 564.177 67.738C552.102 75.348 539.518 82.121 526.515 88.007V88.007ZM431.764 211.405L431.554 211.309C431.554 211.309 429.998 234.591 426.121 250.119C422.243 265.647 405.946 275.724 405.946 275.724L397.404 299.007C397.404 299.007 377.997 316.837 365.577 316.837C353.157 316.837 351.545 306.761 351.545 306.761C339.855 296.818 314.497 289.966 298.047 293.843C295.474 314.17 288.314 344.92 284.61 360.16C291.54 363.864 302.654 367.357 318.95 365.745C335.788 363.908 352.233 359.445 367.689 352.52C369.321 345.995 372.488 337.357 379.206 332.386L382.95 329.641C371.7 334.325 357.42 349.584 346.919 350.985C335.267 352.54 331.389 350.217 332.177 345.553C332.964 340.889 349.107 343.845 354.674 341.714C360.241 339.584 355.461 338.624 343.809 337.069C332.157 335.515 334.499 330.85 334.499 330.85C334.499 330.85 353.407 332.424 356.997 330.85C360.587 329.277 385.79 323.173 397.308 313C408.825 302.827 409.824 281.234 409.824 281.234L418.769 276.762C418.961 274.632 419.038 273.307 419.038 273.307C419.038 273.307 428.002 265.072 432.667 245.341C434.912 235.782 433.665 222.654 431.764 211.406V211.405Z" fill="white"/>
<path fill-rule="evenodd" clip-rule="evenodd" d="M391.857 140.963C391.857 140.963 397.232 128.064 407.981 122.325C415.149 118.752 423.011 116.787 431.016 116.567L458.966 99.293C458.966 99.293 466.855 72.037 493.748 60.905C520.641 49.772 634.991 8.217 636.066 7.507C637.141 6.797 650.406 0.327996 650.406 1.403C650.42 3.249 650.054 5.079 649.33 6.777C648.255 9.657 621.726 26.854 621.726 26.854C621.726 26.854 634.626 18.966 634.991 23.016C635.355 27.066 634.991 28.026 630.326 30.904C625.662 33.784 617.062 39.139 615.276 40.214C613.491 41.288 606.677 47.737 601.283 48.467C595.889 49.197 582.298 50.252 581.223 51.327C580.148 52.402 545.001 86.452 533.541 96.145C522.081 105.838 503.423 114.782 503.423 114.782C503.423 114.782 478.334 141.654 459.273 155.646C440.211 169.639 427.369 173.209 427.369 173.209L425.929 174.629C425.929 174.629 427.004 187.182 427.004 188.622C427.004 190.062 437.409 225.532 432.764 245.244C428.118 264.956 419.134 273.21 419.134 273.21C419.134 273.21 417.714 296.511 411.974 305.11C406.234 313.71 390.456 324.112 379.341 332.366C368.227 340.619 366.807 358.892 366.077 361.042C365.347 363.192 356.479 399.756 351.737 408.7C346.997 417.645 332.542 422.693 330.143 423.403C328.837 423.787 315.477 444.056 302.616 443.058C285.414 441.842 271.742 428.131 270.578 410.927C270.374 407.385 270.503 403.831 270.962 400.313C273.822 378.431 282.479 369.353 282.479 369.353C282.479 369.353 300.849 297.586 299.045 278.584C297.241 259.582 296.895 247.758 302.27 237.01C307.645 226.261 325.21 209.773 352.467 197.93C379.725 186.088 382.931 178.218 382.931 164.61C383.207 155.957 386.347 147.64 391.857 140.963V140.963Z" stroke="#263238" stroke-linecap="round"/>
<path d="M418.72 264.734C422.512 248.617 417.22 233.582 406.9 231.154C396.58 228.726 385.14 239.824 381.348 255.942C377.556 272.059 382.847 287.094 393.167 289.522C403.487 291.95 414.927 280.852 418.72 264.734Z" fill="#FF3C4B"/>
<path d="M353.465 332.385C334.097 336.685 326.591 327.356 326.591 327.356C326.591 327.356 328.741 341.694 349.185 343.844" stroke="#263238" stroke-linecap="round" stroke-linejoin="round"/>
<path d="M375.676 332.73C375.676 332.73 360.972 345.993 349.493 350.293C338.013 354.593 329.069 362.136 319.393 349.218M398.98 245.993C398.98 245.993 410.094 272.864 401.13 293.306C392.165 313.748 379.246 321.54 354.887 325.571L398.98 245.993Z" stroke="#263238" stroke-linecap="round"/>
<path d="M428.733 126.26C426.791 135.856 425.375 145.55 424.491 155.3C423.993 161.785 424.471 168.307 425.911 174.648M491.101 99.734C491.101 99.734 500.065 93.65 505.075 99.389C510.085 105.128 503.289 114.744 503.289 114.744L491.101 99.734Z" stroke="#263238" stroke-linecap="round" stroke-linejoin="round"/>
<path d="M344.31 256.588L365.79 245.186" stroke="#263238" stroke-linecap="round"/>
<path d="M635.931 7.622C634.971 8.255 544.156 41.307 505.4 56.375C508.894 56.528 527.206 58.064 532.063 73.937C534.198 80.706 535.185 87.784 534.981 94.878C547.727 83.803 580.148 52.382 581.185 51.346C582.222 50.309 595.87 49.196 601.245 48.486C606.619 47.776 613.434 41.307 615.238 40.233C617.043 39.158 625.623 33.783 630.288 30.923C634.952 28.063 635.317 26.97 634.952 23.035C634.588 19.1 621.688 26.874 621.688 26.874C621.688 26.874 648.217 9.599 649.292 6.797C650.015 5.098 650.382 3.269 650.367 1.422C650.271 0.443 637.007 6.892 635.931 7.622V7.622Z" fill="#FF3C4B" stroke="#263238" stroke-linecap="round" stroke-linejoin="round"/>
<path d="M621.592 26.97L609.038 33.419Z" fill="white"/>
<path d="M621.592 26.97L609.038 33.419" stroke="#263238" stroke-linecap="round" stroke-linejoin="round"/>
<path d="M368.534 349.66C364.522 351.214 359.454 353.306 354.617 355.629C341.185 362.094 326.697 366.086 311.849 367.414C300.178 368.393 290.254 363.172 284.821 359.487C283.343 365.552 282.383 369.372 282.383 369.372C282.383 369.372 273.726 378.451 270.866 400.332C270.406 403.85 270.278 407.404 270.482 410.946C271.646 428.15 285.318 441.861 302.52 443.076C315.381 444.075 328.741 423.883 330.047 423.422C332.542 422.712 346.997 417.664 351.642 408.72C356.287 399.775 365.271 363.21 365.982 361.06C366.327 360.024 366.902 355.245 368.534 349.66V349.66Z" fill="#263238" stroke="#263238" stroke-linecap="round"/>
<path d="M291.655 379.948C291.655 379.948 307.012 373.326 322.522 378.834" stroke="white" stroke-width="0.75" stroke-linecap="round" stroke-linejoin="round"/>
<path d="M324.058 361.1C304.267 363.326 292.807 356.09 286.99 350.37C285.666 356.128 284.514 360.811 283.67 364.17C293.814 370.484 305.792 373.19 317.665 371.848C339.011 369.218 358.38 360.485 366.96 356.148C367.037 355.699 367.133 355.238 367.248 354.765C367.536 353.364 367.92 351.848 368.381 350.235C368.381 350.139 368.381 350.043 368.477 349.928C368.63 349.429 368.784 348.911 368.957 348.393C368.965 348.316 368.965 348.239 368.957 348.163C369.549 346.388 370.247 344.651 371.049 342.961C357.151 352.846 340.993 359.082 324.058 361.099V361.1ZM263.936 235.167C263.936 235.167 260.462 236.933 272.996 228.699C285.532 220.465 281.75 232.384 290.273 211.232C298.796 190.08 308.202 174.322 323.616 168.583C339.03 162.844 384.563 171.097 384.563 171.097L395.313 178.622L380.34 207.642C373.047 204.053 364.558 203.787 357.055 206.914C344.865 212.288 338.397 218.737 339.779 224.476C341.161 230.216 352.679 245.993 352.679 245.993C352.679 245.993 298.393 224.668 289.793 229.313C281.193 233.958 254.991 243.478 253.551 244.208C252.111 244.937 263.936 235.168 263.936 235.168V235.167Z" fill="#FF3C4B" stroke="#263238" stroke-linecap="round"/>
<path d="M332.58 203.708C322.416 206.2 313.668 212.646 308.279 221.616M297.356 218.372C299.18 215.704 301.196 212.614 303.249 209.063C312.579 193.305 331.218 186.491 331.218 186.491L297.356 218.372Z" stroke="#263238" stroke-linecap="round"/>
<path d="M322.618 254.956C322.618 254.956 300.754 251.732 284.226 265.705C267.699 279.678 269.561 294.669 269.561 294.669C269.561 294.669 253.417 301.828 250.192 310.024C248.308 314.866 247.018 319.919 246.353 325.072C246.353 325.072 237.753 333.325 230.574 341.56C223.394 349.794 217.31 351.157 215.87 362.001C214.43 372.846 215.16 399.276 223.05 425.438C230.939 451.599 236.314 463.078 238.406 467.664C240.498 472.252 259.195 495.976 262.42 496.705C265.645 497.435 268.87 498.125 271.384 496.705C273.899 495.285 292.5 490.947 291.828 485.592C291.688 482.732 290.685 479.98 288.948 477.702L288.238 476.628C288.238 476.628 291.463 470.524 289.313 467.664C287.163 464.804 285.359 464.44 281.423 460.851C277.489 457.261 275.339 456.186 270.674 456.186C266.009 456.186 261.076 456.551 261.076 456.551C261.076 456.551 253.897 453.672 253.897 432.885C253.897 412.098 260.347 394.171 263.495 384.9C265.395 379.598 266.483 374.04 266.72 368.412C266.72 368.412 269.234 372.002 286.799 363.748C304.363 355.495 308.317 332.212 308.317 332.212L282.441 336.32C295.109 335.21 307.613 332.685 319.719 328.796C339.799 322.346 348.398 321.272 356.191 290.791" fill="white"/>
<path d="M288.526 321.406C284.841 316.473 305.803 302.212 311.35 296.742C316.898 291.272 293.46 305.993 287.912 307.222C282.365 308.45 277.432 304.746 280.522 287.49C282.752 276.648 288.016 266.663 295.706 258.7C291.534 260.431 287.651 262.787 284.188 265.687C267.698 279.66 269.503 294.727 269.503 294.727C269.503 294.727 253.36 301.887 250.135 310.082C248.25 314.924 246.961 319.978 246.295 325.131C246.295 325.131 237.695 333.384 230.517 341.618C223.337 349.852 217.252 351.215 215.813 362.06C214.373 372.905 215.103 399.335 222.992 425.496C230.882 451.658 236.256 463.136 238.349 467.723C240.441 472.31 259.138 496.034 262.363 496.763C265.587 497.493 268.813 498.184 271.327 496.763C273.842 495.343 292.442 491.005 291.77 485.65C291.61 484.352 291.348 483.068 290.983 481.811C284.111 482.675 271.538 487.071 268.16 487.071C264.474 487.071 260.77 481.524 255.222 475.343C249.674 469.163 241.036 453.155 239.865 433.423C238.695 413.692 247.255 395.189 247.255 385.937C247.255 376.686 236.16 398.279 238.617 389.027C241.074 379.776 250.96 366.206 258.351 362.501C265.741 358.797 274.398 356.341 277.546 350.179C280.694 344.018 266.451 348.259 271.385 343.384C276.318 338.509 308.394 332.174 318.875 326.109C329.355 320.044 292.231 326.339 288.526 321.407V321.406Z" fill="#FFD4D8"/>
<path opacity="0.5" d="M288.526 321.406C284.841 316.473 305.803 302.212 311.35 296.742C316.898 291.272 293.46 305.993 287.912 307.222C282.365 308.45 277.432 304.746 280.522 287.49C282.752 276.648 288.016 266.663 295.706 258.7C291.534 260.431 287.651 262.787 284.188 265.687C267.698 279.66 269.503 294.727 269.503 294.727C269.503 294.727 253.36 301.887 250.135 310.082C248.25 314.924 246.961 319.978 246.295 325.131C246.295 325.131 237.695 333.384 230.517 341.618C223.337 349.852 217.252 351.215 215.813 362.06C214.373 372.905 215.103 399.335 222.992 425.496C230.882 451.658 236.256 463.136 238.349 467.723C240.441 472.31 259.138 496.034 262.363 496.763C265.587 497.493 268.813 498.184 271.327 496.763C273.842 495.343 292.442 491.005 291.77 485.65C291.61 484.352 291.348 483.068 290.983 481.811C284.111 482.675 271.538 487.071 268.16 487.071C264.474 487.071 260.77 481.524 255.222 475.343C249.674 469.163 241.036 453.155 239.865 433.423C238.695 413.692 247.255 395.189 247.255 385.937C247.255 376.686 236.16 398.279 238.617 389.027C241.074 379.776 250.96 366.206 258.351 362.501C265.741 358.797 274.398 356.341 277.546 350.179C280.694 344.018 266.451 348.259 271.385 343.384C276.318 338.509 308.394 332.174 318.875 326.109C329.355 320.044 292.231 326.339 288.526 321.407V321.406Z" fill="#FFD4D8"/>
<path d="M322.618 254.956C322.618 254.956 300.754 251.732 284.226 265.705C267.699 279.678 269.561 294.669 269.561 294.669C269.561 294.669 253.417 301.828 250.192 310.024C248.308 314.866 247.018 319.919 246.353 325.072C246.353 325.072 237.753 333.325 230.574 341.56C223.394 349.794 217.31 351.157 215.87 362.001C214.43 372.846 215.16 399.276 223.05 425.438C230.939 451.599 236.314 463.078 238.406 467.664C240.498 472.252 259.195 495.976 262.42 496.705C265.645 497.435 268.87 498.125 271.384 496.705C273.899 495.285 292.5 490.947 291.828 485.592C291.688 482.732 290.685 479.98 288.948 477.702L288.238 476.628C288.238 476.628 291.463 470.524 289.313 467.664C287.163 464.804 285.359 464.44 281.423 460.851C277.489 457.261 275.339 456.186 270.674 456.186C266.009 456.186 261.076 456.551 261.076 456.551C261.076 456.551 253.897 453.672 253.897 432.885C253.897 412.098 260.347 394.171 263.495 384.9C265.395 379.598 266.483 374.04 266.72 368.412C266.72 368.412 269.234 372.002 286.799 363.748C304.363 355.495 308.317 332.212 308.317 332.212L282.441 336.32C295.109 335.21 307.613 332.685 319.719 328.796C339.799 322.346 348.398 321.272 356.191 290.791" stroke="#263238" stroke-linecap="round"/>
<path d="M266.681 368.585L264.627 352.136" stroke="#263238" stroke-linecap="round" stroke-linejoin="round"/>
<path d="M368.132 241.328C378.536 238.104 381.051 225.205 387.136 211.578C391.946 201.461 397.369 191.648 403.376 182.192C392.884 182.336 382.449 180.634 372.547 177.162C356.403 171.405 337.4 175.378 333.829 179.312C330.259 183.247 330.604 178.238 331.315 190.426C332.025 202.614 336.689 220.176 340.912 226.28C345.135 232.384 347.727 235.877 347.727 235.877" fill="white"/>
<path d="M398.767 182.153C389.797 181.793 380.929 180.112 372.45 177.163C356.306 171.404 337.302 175.376 333.732 179.313C330.162 183.246 330.507 178.236 331.217 190.426C331.927 202.614 336.592 220.176 340.815 226.28L342.351 228.43L399.65 182.594L398.767 182.153Z" fill="#FFD4D8"/>
<path opacity="0.5" d="M398.767 182.153C389.797 181.793 380.929 180.112 372.45 177.163C356.306 171.404 337.302 175.376 333.732 179.313C330.162 183.246 330.507 178.236 331.217 190.426C331.927 202.614 336.592 220.176 340.815 226.28L342.351 228.43L399.65 182.594L398.767 182.153Z" fill="white"/>
<path d="M368.132 241.328C378.536 238.104 381.051 225.205 387.136 211.578C391.946 201.461 397.369 191.648 403.376 182.192C392.884 182.336 382.449 180.634 372.547 177.162C356.403 171.405 337.4 175.378 333.829 179.312C330.259 183.247 330.604 178.238 331.315 190.426C332.025 202.614 336.689 220.176 340.912 226.28C345.135 232.384 347.727 235.877 347.727 235.877" stroke="#263238" stroke-linecap="round"/>
<path fill-rule="evenodd" clip-rule="evenodd" d="M365.637 220.177C372.001 220.226 378.344 219.445 384.506 217.854C385.331 215.8 386.196 213.708 387.136 211.578C391.946 201.461 397.369 191.648 403.376 182.192C392.884 182.336 382.449 180.634 372.547 177.162C356.403 171.405 337.4 175.378 333.829 179.312C330.259 183.247 330.604 178.238 331.315 190.426C331.841 197.432 333.057 204.369 334.943 211.136C340.74 215.973 350.242 220.023 365.637 220.176V220.177Z" stroke="#263238" stroke-linecap="round"/>
<path d="M369.014 235.647L360.376 197.624" stroke="#263238" stroke-linecap="round" stroke-linejoin="round"/>
<path d="M379.015 110.713C380.049 106.473 380.805 102.172 381.28 97.833C382.01 91.02 365.636 78.947 348.782 80.387C331.928 81.827 338.032 98.314 335.882 103.688C333.732 109.062 317.589 103.323 313.289 112.998C308.989 122.671 316.514 125.55 316.514 128.352C316.514 131.155 303.249 138.756 304.996 155.608C306.743 172.46 335.825 188.928 342.274 190.368C348.724 191.808 356.614 185.704 356.614 180.771C356.614 175.838 367.364 173.957 370.243 169.255C373.122 164.552 365.578 148.468 365.923 144.878C366.269 141.289 377.441 126.97 373.813 123.381C370.185 119.791 379.015 110.713 379.015 110.713Z" fill="#263238" stroke="#263238" stroke-linecap="round"/>
<path d="M348.916 130.157C348.916 130.157 333.559 130.771 325.478 141.251M361.854 114.744C361.854 114.744 367.421 114.13 367.421 101.788C367.421 89.446 349.531 92.536 347.054 97.469C344.578 102.402 346.44 111.654 340.278 114.129C334.116 116.606 324.23 116.586 324.23 121.519V128.314L361.854 114.744ZM345.787 124.61C345.787 124.61 322.963 123.381 311.235 144.341L345.787 124.61Z" stroke="white" stroke-width="0.75" stroke-linecap="round" stroke-linejoin="round"/>
<path d="M375.214 112.978C376.232 111.654 389.496 125.435 390.014 126.99C390.538 128.884 390.954 130.807 391.262 132.748C391.384 133.481 391.8 134.133 392.414 134.552L401.685 140.905C402.93 141.776 403.246 143.485 402.395 144.745L399.171 149.389C398.599 150.194 398.511 151.245 398.941 152.134C401.531 157.7 410.707 177.47 410.093 179.005C409.372 180.891 407.957 182.429 406.139 183.305C404.353 184.015 371.375 195.128 367.421 195.493C364.388 195.762 357.093 183.305 353.869 177.508C353.079 176.178 351.36 175.74 350.029 176.529C347.221 178.151 343.785 178.244 340.892 176.779C333.713 173.535 325.536 167.451 329.048 160.637C332.561 153.823 338.378 153.477 340.892 155.262C342.562 156.452 345.518 158.948 347.304 160.445C348.186 161.211 349.457 161.335 350.471 160.752L351.987 159.869C352.72 159.469 353.232 158.759 353.377 157.938C353.523 157.116 353.287 156.273 352.736 155.646C352.162 154.917 351.708 154.101 351.392 153.228C351.392 153.228 361.777 144.264 358.207 139.255C354.637 134.245 344.943 126.702 346.017 122.767C347.092 118.832 361.374 113.803 367.517 113.803C369.801 113.727 374.466 113.976 375.214 112.978V112.978Z" fill="white"/>
<path d="M358.11 139.197C361.68 144.207 351.295 153.17 351.295 153.17C351.611 154.043 352.065 154.86 352.639 155.588C353.19 156.215 353.426 157.058 353.28 157.88C353.135 158.701 352.623 159.412 351.89 159.811L350.374 160.694C349.361 161.276 348.089 161.154 347.207 160.387C345.422 158.89 342.465 156.394 340.795 155.204C338.281 153.419 332.541 153.764 328.952 160.579C325.362 167.393 333.616 173.477 340.795 176.721C343.688 178.186 347.125 178.093 349.933 176.471C351.263 175.682 352.982 176.121 353.772 177.451C356.997 183.209 364.291 195.704 367.324 195.435C371.278 195.07 404.257 183.919 406.042 183.247C407.86 182.371 409.275 180.833 409.996 178.947C409.996 178.947 395.753 185.685 387.998 178.697C380.243 171.711 370.146 161.634 367.036 156.97C363.926 152.306 370.396 141.999 363.926 132.133C357.457 122.267 345.825 122.672 345.825 122.672C344.845 126.626 354.52 134.15 358.11 139.198V139.197Z" fill="#FFD4D8"/>
<path opacity="0.5" d="M358.11 139.197C361.68 144.207 351.295 153.17 351.295 153.17C351.611 154.043 352.065 154.86 352.639 155.588C353.19 156.215 353.426 157.058 353.28 157.88C353.135 158.701 352.623 159.412 351.89 159.811L350.374 160.694C349.361 161.276 348.089 161.154 347.207 160.387C345.422 158.89 342.465 156.394 340.795 155.204C338.281 153.419 332.541 153.764 328.952 160.579C325.362 167.393 333.616 173.477 340.795 176.721C343.688 178.186 347.125 178.093 349.933 176.471C351.263 175.682 352.982 176.121 353.772 177.451C356.997 183.209 364.291 195.704 367.324 195.435C371.278 195.07 404.257 183.919 406.042 183.247C407.86 182.371 409.275 180.833 409.996 178.947C409.996 178.947 395.753 185.685 387.998 178.697C380.243 171.711 370.146 161.634 367.036 156.97C363.926 152.306 370.396 141.999 363.926 132.133C357.457 122.267 345.825 122.672 345.825 122.672C344.845 126.626 354.52 134.15 358.11 139.198V139.197Z" fill="white"/>
<path fill-rule="evenodd" clip-rule="evenodd" d="M375.214 112.978C376.232 111.654 389.496 125.435 390.014 126.99C390.538 128.884 390.954 130.807 391.262 132.748C391.384 133.481 391.8 134.133 392.414 134.552L401.685 140.905C402.93 141.776 403.246 143.485 402.395 144.745L399.171 149.389C398.599 150.194 398.511 151.245 398.941 152.134C401.531 157.7 410.707 177.47 410.093 179.005C409.372 180.891 407.957 182.429 406.139 183.305C404.353 184.015 371.375 195.128 367.421 195.493C364.388 195.762 357.093 183.305 353.869 177.508C353.079 176.178 351.36 175.74 350.029 176.529C347.221 178.151 343.785 178.244 340.892 176.779C333.713 173.535 325.536 167.451 329.048 160.637C332.561 153.823 338.378 153.477 340.892 155.262C342.562 156.452 345.518 158.948 347.304 160.445C348.186 161.211 349.457 161.335 350.471 160.752L351.987 159.869C352.72 159.469 353.232 158.759 353.377 157.938C353.523 157.116 353.287 156.273 352.736 155.646C352.162 154.917 351.708 154.101 351.392 153.228C351.392 153.228 361.777 144.264 358.207 139.255C354.637 134.245 344.943 126.702 346.017 122.767C347.092 118.832 361.374 113.803 367.517 113.803C369.801 113.727 374.466 113.976 375.214 112.978V112.978Z" stroke="#263238" stroke-linecap="round"/>
<path d="M385.273 132.172C385.273 132.172 377.595 132.172 375.425 133.266C373.256 134.36 370.492 142.019 370.492 142.019L377.614 137.642L385.81 136.011L387.999 130.003L385.273 132.172V132.172Z" fill="#263238"/>
<path d="M385.81 139.83L379.245 143.113H385.81" fill="white"/>
<path d="M385.81 139.83L379.245 143.113H385.81" stroke="#263238" stroke-linecap="round"/>
<path d="M378.901 491.177C366.484 494.997 354.569 500.287 343.408 506.935C326.592 517.319 298.586 533.826 286.051 534.594C273.516 535.362 269.561 531.369 262.037 528.51C254.512 525.65 250.52 534.959 250.52 540.333C250.52 545.707 250.52 548.222 246.93 553.251C243.34 558.279 234.069 576.821 234.069 576.821C234.069 576.821 229.039 596.898 234.069 597.608C239.098 598.318 242.304 591.524 252.708 582.925C263.112 574.325 279.582 555.669 294.286 554.249C308.99 552.829 374.601 545.995 401.782 533.135C428.963 520.275 427.236 523.807 435.125 517.78C443.015 511.753 440.135 500.218 436.2 492.329C434.107 487.87 431.044 483.936 427.236 480.812" fill="white"/>
<path d="M417.983 525.88C414.759 525.304 412.225 524.46 412.225 523.27C412.225 520.16 421.535 520.16 426.199 513.96C430.864 507.76 425.412 501.541 419.212 494.555C416.832 491.887 413.895 488.067 410.727 484.344L378.977 491.177C366.561 494.997 354.645 500.287 343.485 506.935C326.592 517.319 298.585 533.825 286.051 534.594C273.516 535.361 269.561 531.369 262.037 528.509C254.512 525.649 250.52 534.959 250.52 540.333C250.52 545.707 250.52 548.221 246.93 553.25C243.34 558.279 234.069 576.82 234.069 576.82C234.069 576.82 229.039 596.897 234.069 597.608C239.098 598.318 242.304 591.523 252.708 582.924C263.112 574.325 279.582 555.67 294.286 554.248C308.99 552.828 374.601 545.995 401.782 533.135C409 529.718 414.125 527.473 417.983 525.88Z" fill="#FFD4D8"/>
<path opacity="0.5" d="M417.983 525.88C414.759 525.304 412.225 524.46 412.225 523.27C412.225 520.16 421.535 520.16 426.199 513.96C430.864 507.76 425.412 501.541 419.212 494.555C416.832 491.887 413.895 488.067 410.727 484.344L378.977 491.177C366.561 494.997 354.645 500.287 343.485 506.935C326.592 517.319 298.585 533.825 286.051 534.594C273.516 535.361 269.561 531.369 262.037 528.509C254.512 525.649 250.52 534.959 250.52 540.333C250.52 545.707 250.52 548.221 246.93 553.25C243.34 558.279 234.069 576.82 234.069 576.82C234.069 576.82 229.039 596.897 234.069 597.608C239.098 598.318 242.304 591.523 252.708 582.924C263.112 574.325 279.582 555.67 294.286 554.248C308.99 552.828 374.601 545.995 401.782 533.135C409 529.718 414.125 527.473 417.983 525.88Z" fill="white"/>
<path d="M378.901 491.177C366.484 494.997 354.569 500.287 343.408 506.935C326.592 517.319 298.586 533.826 286.051 534.594C273.516 535.362 269.561 531.369 262.037 528.51C254.512 525.65 250.52 534.959 250.52 540.333C250.52 545.707 250.52 548.222 246.93 553.251C243.34 558.279 234.069 576.821 234.069 576.821C234.069 576.821 229.039 596.898 234.069 597.608C239.098 598.318 242.304 591.524 252.708 582.925C263.112 574.325 279.582 555.669 294.286 554.249C308.99 552.829 374.601 545.995 401.782 533.135C428.963 520.275 427.236 523.807 435.125 517.78C443.015 511.753 440.135 500.218 436.2 492.329C434.107 487.87 431.044 483.936 427.236 480.812" stroke="#263238" stroke-linecap="round"/>
<path d="M437.754 496.206C437.754 496.206 429.212 462.828 372.085 414.555C333.694 382.078 316.514 375.13 294.65 394.478C272.786 413.825 277.085 426.398 285.052 438.624C293.018 450.85 325.19 474.114 351.719 485.956C378.247 497.799 405.14 514.268 420.19 512.828" fill="white"/>
<path d="M395.082 472.04C387.308 471.273 401.282 486.8 384.985 482.904C368.688 479.008 312.042 430.927 300.389 415.4C290.792 402.616 299.103 391.963 302.309 388.527C299.593 390.228 297.024 392.154 294.631 394.285C272.767 413.652 277.066 426.185 285.032 438.432C292.998 450.677 325.17 473.922 351.699 485.764C378.227 497.607 405.12 514.075 420.169 512.636L427.329 505.918C426.044 502.271 422.742 498.528 419.191 494.517C412.971 487.568 402.836 472.827 395.081 472.04H395.082Z" fill="#FF3C4B"/>
<path opacity="0.5" d="M395.082 472.04C387.308 471.273 401.282 486.8 384.985 482.904C368.688 479.008 312.042 430.927 300.389 415.4C290.792 402.616 299.103 391.963 302.309 388.527C299.593 390.228 297.024 392.154 294.631 394.285C272.767 413.652 277.066 426.185 285.032 438.432C292.998 450.677 325.17 473.922 351.699 485.764C378.227 497.607 405.12 514.075 420.169 512.636L427.329 505.918C426.044 502.271 422.742 498.528 419.191 494.517C412.971 487.568 402.836 472.827 395.081 472.04H395.082Z" fill="white"/>
<path d="M437.754 496.206C437.754 496.206 429.212 462.828 372.085 414.555C333.694 382.078 316.514 375.13 294.65 394.478C272.786 413.825 277.085 426.398 285.052 438.624C293.018 450.85 325.19 474.114 351.719 485.956C378.247 497.799 405.14 514.268 420.19 512.828" stroke="#263238" stroke-linecap="round"/>
<path d="M349.858 527.742C346.23 519.738 347.113 510.736 348.859 503.788C347.036 504.786 345.212 505.822 343.408 506.935C326.592 517.319 298.586 533.826 286.051 534.594C273.516 535.362 269.561 531.369 262.037 528.51C254.512 525.65 250.52 534.959 250.52 540.333C250.52 545.707 250.52 548.222 246.93 553.251C243.34 558.279 234.069 576.821 234.069 576.821C234.069 576.821 229.039 596.898 234.069 597.608C239.098 598.318 242.304 591.524 252.708 582.925C263.112 574.325 279.582 555.669 294.286 554.249C318.884 551.913 343.346 548.319 367.576 543.481C359.823 540.779 353.454 535.121 349.858 527.741V527.742Z" fill="#FF3C4B"/>
<path opacity="0.2" d="M349.858 527.742C346.23 519.738 347.113 510.736 348.859 503.788C347.036 504.786 345.212 505.822 343.408 506.935C326.592 517.319 298.586 533.826 286.051 534.594C273.516 535.362 269.561 531.369 262.037 528.51C254.512 525.65 250.52 534.959 250.52 540.333C250.52 545.707 250.52 548.222 246.93 553.251C243.34 558.279 234.069 576.821 234.069 576.821C234.069 576.821 229.039 596.898 234.069 597.608C239.098 598.318 242.304 591.524 252.708 582.925C263.112 574.325 279.582 555.669 294.286 554.249C318.884 551.913 343.346 548.319 367.576 543.481C359.823 540.779 353.454 535.121 349.858 527.741V527.742Z" fill="black"/>
<path d="M357.69 531.945C357.69 531.945 379.65 534.037 394.277 520.429M349.858 527.742C346.23 519.738 347.113 510.736 348.859 503.788C347.036 504.786 345.212 505.822 343.408 506.935C326.592 517.319 298.586 533.826 286.051 534.594C273.516 535.362 269.561 531.369 262.037 528.51C254.512 525.65 250.52 534.959 250.52 540.333C250.52 545.707 250.52 548.222 246.93 553.251C243.34 558.279 234.069 576.821 234.069 576.821C234.069 576.821 229.039 596.898 234.069 597.608C239.098 598.318 242.304 591.524 252.708 582.925C263.112 574.325 279.582 555.669 294.286 554.249C318.884 551.913 343.346 548.319 367.576 543.481C359.823 540.779 353.454 535.121 349.858 527.741V527.742ZM287.644 433.691C287.644 433.691 366.059 483.864 389.055 492.233C412.052 500.601 406.831 484.901 406.831 484.901L287.644 433.691Z" stroke="#263238" stroke-linecap="round" stroke-linejoin="round"/>
<path d="M352.87 250.983C352.87 250.983 325.075 232.806 292.903 236.645C260.731 240.484 222.531 273.382 197.769 301.521C173.006 329.659 62.9192 483.135 62.9192 483.135L59.5002 458.048C57.9012 446.23 61.0252 434.258 68.1962 424.728L85.6832 401.445C85.6832 401.445 87.4302 372.808 102.96 358.105C113.27 348.461 124.474 339.817 136.418 332.289C140.43 329.525 180.568 289.314 208.882 260.561C237.196 231.808 271.556 211.213 302.692 219.927C333.827 228.641 346.304 235.282 353.56 241.693C360.816 248.103 361.066 247.451 361.066 247.451L352.869 250.983H352.87Z" fill="#FF3C4B" stroke="#263238" stroke-linecap="round"/>
<path d="M356.365 250.196C356.365 250.196 317.148 218.66 276.127 230.349M164.177 319.199L170.646 311.924L164.177 319.199ZM85.6846 401.445L161.509 321.694L85.6846 401.445ZM270.061 232.384C268.026 233.19 265.991 234.092 263.937 235.148L270.061 232.384Z" stroke="#263238" stroke-linecap="round"/>
<path d="M288.2 476.84C288.2 476.84 291.425 470.735 289.275 467.876C287.125 465.016 285.32 464.651 281.385 461.062C277.45 457.472 275.3 456.398 270.635 456.398C265.971 456.398 261.038 456.762 261.038 456.762C261.038 456.762 253.858 453.883 253.858 433.096C254.048 420.263 256.157 407.531 260.116 395.322C253.833 399.041 246.794 401.298 239.519 401.925C230.649 402.888 221.907 399.227 216.369 392.232C217.535 403.522 219.732 414.682 222.934 425.572C230.824 451.733 236.198 463.212 238.291 467.799C240.383 472.386 259.08 496.11 262.305 496.839C265.53 497.569 268.755 498.259 271.269 496.839C273.784 495.419 292.384 491.081 291.713 485.726C291.573 482.866 290.57 480.115 288.833 477.837L288.2 476.839V476.84Z" fill="#FF3C4B"/>
<path opacity="0.2" d="M291.789 485.804C291.789 485.228 291.616 484.71 291.52 484.23V483.77C291.52 483.616 291.367 483.078 291.29 482.771C291.213 482.464 291.136 482.253 291.079 482.023C284.207 482.886 271.633 487.282 268.255 487.282C264.569 487.282 260.865 481.735 255.317 475.554C249.769 469.374 241.131 453.366 239.96 433.634C239.212 421.811 242.014 410.448 244.375 401.216C242.84 401.523 241.265 401.753 239.577 401.926C230.707 402.889 221.964 399.228 216.427 392.233C216.427 392.732 216.542 393.25 216.599 393.749C216.695 394.632 216.81 395.515 216.926 396.436C216.926 397.031 217.098 397.665 217.176 398.356C217.252 399.046 217.425 400.006 217.54 400.851C217.655 401.695 217.75 402.137 217.847 402.771C217.943 403.404 218.135 404.459 218.288 405.304L218.634 407.224L219.094 409.834L219.498 411.754C219.69 412.655 219.901 413.577 220.112 414.498C220.246 415.112 220.381 415.726 220.534 416.321C220.784 417.358 221.053 418.394 221.321 419.411C221.437 419.93 221.571 420.448 221.705 420.947C222.128 422.502 222.569 424.057 223.03 425.592C230.92 451.754 236.294 463.232 238.386 467.819C238.561 468.189 238.76 468.549 238.981 468.894C239.365 469.546 239.864 470.334 240.479 471.235C241.496 472.733 242.801 474.518 244.318 476.475L245.22 477.646C251.593 486.034 260.346 496.38 262.496 496.84C265.721 497.55 268.946 498.26 271.461 496.84C272.393 496.401 273.355 496.03 274.341 495.727L275.818 495.247C281.961 493.251 292.327 489.834 291.789 485.804V485.804Z" fill="black"/>
<path d="M286.145 470.449L281.635 474.19C281.635 474.19 284.975 473.96 288.91 477.914" stroke="#263238" stroke-linecap="round" stroke-linejoin="round"/>
<path fill-rule="evenodd" clip-rule="evenodd" d="M288.2 476.84C288.2 476.84 291.425 470.735 289.275 467.876C287.125 465.016 285.32 464.651 281.385 461.062C277.45 457.472 275.3 456.398 270.635 456.398C265.971 456.398 261.038 456.762 261.038 456.762C261.038 456.762 253.858 453.883 253.858 433.096C254.048 420.263 256.157 407.531 260.116 395.322C253.833 399.041 246.794 401.298 239.519 401.925C230.649 402.888 221.907 399.227 216.369 392.232C217.535 403.522 219.732 414.682 222.934 425.572C230.824 451.733 236.198 463.212 238.291 467.799C240.383 472.386 259.08 496.11 262.305 496.839C265.53 497.569 268.755 498.259 271.269 496.839C273.784 495.419 292.384 491.081 291.713 485.726C291.573 482.866 290.57 480.115 288.833 477.837L288.2 476.839V476.84Z" stroke="#FF3C4B" stroke-linecap="round" stroke-linejoin="round"/>
<path d="M552.38 131.948L461.788 216.934M567.693 102.692L505.904 160.686L567.693 102.692ZM500.109 166.115L490.092 175.515L500.109 166.115ZM120.028 470.107L109.244 480.237L120.028 470.107ZM199.817 395.251L128.702 461.973L199.817 395.251ZM266.73 602.862L259.591 609.557L266.73 602.862ZM311.287 561.04L273.945 596.071L311.287 561.04ZM9.15311 502.797L0.537109 510.893L9.15311 502.797ZM91.1291 425.907L20.7051 491.977L91.1291 425.907ZM216.185 227.696L205.382 237.826L216.185 227.696ZM295.974 152.84L225.55 218.929L295.974 152.84Z" stroke="#263238" stroke-linecap="round" stroke-linejoin="round"/>
<path d="M686.04 334.627C672.973 327.49 667.044 333.435 662.304 327.49C657.564 321.546 675.353 306.06 639.739 290.672C639.739 290.672 637.359 257.335 588.679 256.046C539.998 254.756 553.065 289.383 539.998 297.712C526.93 306.042 523.38 292.942 510.313 301.29C497.246 309.639 503.194 326.298 492.506 328.664C481.818 331.03 467.561 317.949 454.513 326.279C441.465 334.608 441.446 341.668 435.517 341.668C429.587 341.668 417.71 336.916 410.572 341.668C403.434 346.419 395.125 352.383 395.125 352.383H695.54C695.54 352.383 699.07 341.764 686.041 334.627H686.04ZM250.829 141.992C245.782 139.242 243.499 141.53 241.656 139.242C239.814 136.952 246.703 130.969 232.964 125.006C232.964 125.006 232.044 112.136 213.258 111.676C194.472 111.213 199.518 124.544 194.472 127.756C189.426 130.969 188.063 125.833 182.959 129.123C177.855 132.413 180.215 138.741 176.089 139.703C171.964 140.665 166.496 135.567 161.429 138.779C156.364 141.992 156.383 144.743 154.099 144.743C151.816 144.743 147.23 142.915 144.506 144.743C141.78 146.57 138.557 148.879 138.557 148.879H254.474C254.474 148.879 255.818 144.743 250.829 141.992V141.992Z" fill="white"/>
</svg>
